<?xml version="1.0" encoding="utf-8" standalone="no"?>
<!DOCTYPE svg PUBLIC "-//W3C//DTD SVG 1.1//EN"
  "http://www.w3.org/Graphics/SVG/1.1/DTD/svg11.dtd">
<svg xmlns:xlink="http://www.w3.org/1999/xlink" width="1474.56pt" height="756.288pt" viewBox="0 0 1474.56 756.288" xmlns="http://www.w3.org/2000/svg" version="1.1">
 <metadata>
  <rdf:RDF xmlns:dc="http://purl.org/dc/elements/1.1/" xmlns:cc="http://creativecommons.org/ns#" xmlns:rdf="http://www.w3.org/1999/02/22-rdf-syntax-ns#">
   <cc:Work>
    <dc:type rdf:resource="http://purl.org/dc/dcmitype/StillImage"/>
    <dc:date>2025-04-06T15:25:27.316952</dc:date>
    <dc:format>image/svg+xml</dc:format>
    <dc:creator>
     <cc:Agent>
      <dc:title>Matplotlib v3.9.4, https://matplotlib.org/</dc:title>
     </cc:Agent>
    </dc:creator>
   </cc:Work>
  </rdf:RDF>
 </metadata>
 <defs>
  <style type="text/css">*{stroke-linejoin: round; stroke-linecap: butt}</style>
 </defs>
 <g id="figure_1">
  <g id="patch_1">
   <path d="M 0 756.288 
L 1474.56 756.288 
L 1474.56 0 
L 0 0 
z
" style="fill: #ffffff"/>
  </g>
  <g id="axes_1">
   <g id="patch_2">
    <path d="M 184.32 673.09632 
L 1327.104 673.09632 
L 1327.104 90.75456 
L 184.32 90.75456 
z
" style="fill: #ffffff"/>
   </g>
   <g id="matplotlib.axis_1">
    <g id="xtick_1">
     <g id="line2d_1">
      <path d="M 236.264727 673.09632 
L 236.264727 90.75456 
" clip-path="url(#p4d75471125)" style="fill: none; stroke: #b0b0b0; stroke-width: 0.8; stroke-linecap: square"/>
     </g>
     <g id="line2d_2">
      <defs>
       <path id="m88d42498c3" d="M 0 0 
L 0 3.5 
" style="stroke: #000000; stroke-width: 0.8"/>
      </defs>
      <g>
       <use xlink:href="#m88d42498c3" x="236.264727" y="673.09632" style="stroke: #000000; stroke-width: 0.8"/>
      </g>
     </g>
     <g id="text_1">
      <!-- 0 -->
      <g transform="translate(233.083477 687.694758) scale(0.1 -0.1)">
       <defs>
        <path id="DejaVuSans-30" d="M 2034 4250 
Q 1547 4250 1301 3770 
Q 1056 3291 1056 2328 
Q 1056 1369 1301 889 
Q 1547 409 2034 409 
Q 2525 409 2770 889 
Q 3016 1369 3016 2328 
Q 3016 3291 2770 3770 
Q 2525 4250 2034 4250 
z
M 2034 4750 
Q 2819 4750 3233 4129 
Q 3647 3509 3647 2328 
Q 3647 1150 3233 529 
Q 2819 -91 2034 -91 
Q 1250 -91 836 529 
Q 422 1150 422 2328 
Q 422 3509 836 4129 
Q 1250 4750 2034 4750 
z
" transform="scale(0.015625)"/>
       </defs>
       <use xlink:href="#DejaVuSans-30"/>
      </g>
     </g>
    </g>
    <g id="xtick_2">
     <g id="line2d_3">
      <path d="M 444.043636 673.09632 
L 444.043636 90.75456 
" clip-path="url(#p4d75471125)" style="fill: none; stroke: #b0b0b0; stroke-width: 0.8; stroke-linecap: square"/>
     </g>
     <g id="line2d_4">
      <g>
       <use xlink:href="#m88d42498c3" x="444.043636" y="673.09632" style="stroke: #000000; stroke-width: 0.8"/>
      </g>
     </g>
     <g id="text_2">
      <!-- 2 -->
      <g transform="translate(440.862386 687.694758) scale(0.1 -0.1)">
       <defs>
        <path id="DejaVuSans-32" d="M 1228 531 
L 3431 531 
L 3431 0 
L 469 0 
L 469 531 
Q 828 903 1448 1529 
Q 2069 2156 2228 2338 
Q 2531 2678 2651 2914 
Q 2772 3150 2772 3378 
Q 2772 3750 2511 3984 
Q 2250 4219 1831 4219 
Q 1534 4219 1204 4116 
Q 875 4013 500 3803 
L 500 4441 
Q 881 4594 1212 4672 
Q 1544 4750 1819 4750 
Q 2544 4750 2975 4387 
Q 3406 4025 3406 3419 
Q 3406 3131 3298 2873 
Q 3191 2616 2906 2266 
Q 2828 2175 2409 1742 
Q 1991 1309 1228 531 
z
" transform="scale(0.015625)"/>
       </defs>
       <use xlink:href="#DejaVuSans-32"/>
      </g>
     </g>
    </g>
    <g id="xtick_3">
     <g id="line2d_5">
      <path d="M 651.822545 673.09632 
L 651.822545 90.75456 
" clip-path="url(#p4d75471125)" style="fill: none; stroke: #b0b0b0; stroke-width: 0.8; stroke-linecap: square"/>
     </g>
     <g id="line2d_6">
      <g>
       <use xlink:href="#m88d42498c3" x="651.822545" y="673.09632" style="stroke: #000000; stroke-width: 0.8"/>
      </g>
     </g>
     <g id="text_3">
      <!-- 4 -->
      <g transform="translate(648.641295 687.694758) scale(0.1 -0.1)">
       <defs>
        <path id="DejaVuSans-34" d="M 2419 4116 
L 825 1625 
L 2419 1625 
L 2419 4116 
z
M 2253 4666 
L 3047 4666 
L 3047 1625 
L 3713 1625 
L 3713 1100 
L 3047 1100 
L 3047 0 
L 2419 0 
L 2419 1100 
L 313 1100 
L 313 1709 
L 2253 4666 
z
" transform="scale(0.015625)"/>
       </defs>
       <use xlink:href="#DejaVuSans-34"/>
      </g>
     </g>
    </g>
    <g id="xtick_4">
     <g id="line2d_7">
      <path d="M 859.601455 673.09632 
L 859.601455 90.75456 
" clip-path="url(#p4d75471125)" style="fill: none; stroke: #b0b0b0; stroke-width: 0.8; stroke-linecap: square"/>
     </g>
     <g id="line2d_8">
      <g>
       <use xlink:href="#m88d42498c3" x="859.601455" y="673.09632" style="stroke: #000000; stroke-width: 0.8"/>
      </g>
     </g>
     <g id="text_4">
      <!-- 6 -->
      <g transform="translate(856.420205 687.694758) scale(0.1 -0.1)">
       <defs>
        <path id="DejaVuSans-36" d="M 2113 2584 
Q 1688 2584 1439 2293 
Q 1191 2003 1191 1497 
Q 1191 994 1439 701 
Q 1688 409 2113 409 
Q 2538 409 2786 701 
Q 3034 994 3034 1497 
Q 3034 2003 2786 2293 
Q 2538 2584 2113 2584 
z
M 3366 4563 
L 3366 3988 
Q 3128 4100 2886 4159 
Q 2644 4219 2406 4219 
Q 1781 4219 1451 3797 
Q 1122 3375 1075 2522 
Q 1259 2794 1537 2939 
Q 1816 3084 2150 3084 
Q 2853 3084 3261 2657 
Q 3669 2231 3669 1497 
Q 3669 778 3244 343 
Q 2819 -91 2113 -91 
Q 1303 -91 875 529 
Q 447 1150 447 2328 
Q 447 3434 972 4092 
Q 1497 4750 2381 4750 
Q 2619 4750 2861 4703 
Q 3103 4656 3366 4563 
z
" transform="scale(0.015625)"/>
       </defs>
       <use xlink:href="#DejaVuSans-36"/>
      </g>
     </g>
    </g>
    <g id="xtick_5">
     <g id="line2d_9">
      <path d="M 1067.380364 673.09632 
L 1067.380364 90.75456 
" clip-path="url(#p4d75471125)" style="fill: none; stroke: #b0b0b0; stroke-width: 0.8; stroke-linecap: square"/>
     </g>
     <g id="line2d_10">
      <g>
       <use xlink:href="#m88d42498c3" x="1067.380364" y="673.09632" style="stroke: #000000; stroke-width: 0.8"/>
      </g>
     </g>
     <g id="text_5">
      <!-- 8 -->
      <g transform="translate(1064.199114 687.694758) scale(0.1 -0.1)">
       <defs>
        <path id="DejaVuSans-38" d="M 2034 2216 
Q 1584 2216 1326 1975 
Q 1069 1734 1069 1313 
Q 1069 891 1326 650 
Q 1584 409 2034 409 
Q 2484 409 2743 651 
Q 3003 894 3003 1313 
Q 3003 1734 2745 1975 
Q 2488 2216 2034 2216 
z
M 1403 2484 
Q 997 2584 770 2862 
Q 544 3141 544 3541 
Q 544 4100 942 4425 
Q 1341 4750 2034 4750 
Q 2731 4750 3128 4425 
Q 3525 4100 3525 3541 
Q 3525 3141 3298 2862 
Q 3072 2584 2669 2484 
Q 3125 2378 3379 2068 
Q 3634 1759 3634 1313 
Q 3634 634 3220 271 
Q 2806 -91 2034 -91 
Q 1263 -91 848 271 
Q 434 634 434 1313 
Q 434 1759 690 2068 
Q 947 2378 1403 2484 
z
M 1172 3481 
Q 1172 3119 1398 2916 
Q 1625 2713 2034 2713 
Q 2441 2713 2670 2916 
Q 2900 3119 2900 3481 
Q 2900 3844 2670 4047 
Q 2441 4250 2034 4250 
Q 1625 4250 1398 4047 
Q 1172 3844 1172 3481 
z
" transform="scale(0.015625)"/>
       </defs>
       <use xlink:href="#DejaVuSans-38"/>
      </g>
     </g>
    </g>
    <g id="xtick_6">
     <g id="line2d_11">
      <path d="M 1275.159273 673.09632 
L 1275.159273 90.75456 
" clip-path="url(#p4d75471125)" style="fill: none; stroke: #b0b0b0; stroke-width: 0.8; stroke-linecap: square"/>
     </g>
     <g id="line2d_12">
      <g>
       <use xlink:href="#m88d42498c3" x="1275.159273" y="673.09632" style="stroke: #000000; stroke-width: 0.8"/>
      </g>
     </g>
     <g id="text_6">
      <!-- 10 -->
      <g transform="translate(1268.796773 687.694758) scale(0.1 -0.1)">
       <defs>
        <path id="DejaVuSans-31" d="M 794 531 
L 1825 531 
L 1825 4091 
L 703 3866 
L 703 4441 
L 1819 4666 
L 2450 4666 
L 2450 531 
L 3481 531 
L 3481 0 
L 794 0 
L 794 531 
z
" transform="scale(0.015625)"/>
       </defs>
       <use xlink:href="#DejaVuSans-31"/>
       <use xlink:href="#DejaVuSans-30" x="63.623047"/>
      </g>
     </g>
    </g>
    <g id="text_7">
     <!-- Время, с -->
     <g transform="translate(724.368406 704.412258) scale(0.14 -0.14)">
      <defs>
       <path id="DejaVuSans-412" d="M 1259 2228 
L 1259 519 
L 2272 519 
Q 2781 519 3026 730 
Q 3272 941 3272 1375 
Q 3272 1813 3026 2020 
Q 2781 2228 2272 2228 
L 1259 2228 
z
M 1259 4147 
L 1259 2741 
L 2194 2741 
Q 2656 2741 2882 2914 
Q 3109 3088 3109 3444 
Q 3109 3797 2882 3972 
Q 2656 4147 2194 4147 
L 1259 4147 
z
M 628 4666 
L 2241 4666 
Q 2963 4666 3353 4366 
Q 3744 4066 3744 3513 
Q 3744 3084 3544 2831 
Q 3344 2578 2956 2516 
Q 3422 2416 3680 2098 
Q 3938 1781 3938 1306 
Q 3938 681 3513 340 
Q 3088 0 2303 0 
L 628 0 
L 628 4666 
z
" transform="scale(0.015625)"/>
       <path id="DejaVuSans-440" d="M 1159 525 
L 1159 -1331 
L 581 -1331 
L 581 3500 
L 1159 3500 
L 1159 2969 
Q 1341 3281 1617 3432 
Q 1894 3584 2278 3584 
Q 2916 3584 3314 3078 
Q 3713 2572 3713 1747 
Q 3713 922 3314 415 
Q 2916 -91 2278 -91 
Q 1894 -91 1617 61 
Q 1341 213 1159 525 
z
M 3116 1747 
Q 3116 2381 2855 2742 
Q 2594 3103 2138 3103 
Q 1681 3103 1420 2742 
Q 1159 2381 1159 1747 
Q 1159 1113 1420 752 
Q 1681 391 2138 391 
Q 2594 391 2855 752 
Q 3116 1113 3116 1747 
z
" transform="scale(0.015625)"/>
       <path id="DejaVuSans-435" d="M 3597 1894 
L 3597 1613 
L 953 1613 
Q 991 1019 1311 708 
Q 1631 397 2203 397 
Q 2534 397 2845 478 
Q 3156 559 3463 722 
L 3463 178 
Q 3153 47 2828 -22 
Q 2503 -91 2169 -91 
Q 1331 -91 842 396 
Q 353 884 353 1716 
Q 353 2575 817 3079 
Q 1281 3584 2069 3584 
Q 2775 3584 3186 3129 
Q 3597 2675 3597 1894 
z
M 3022 2063 
Q 3016 2534 2758 2815 
Q 2500 3097 2075 3097 
Q 1594 3097 1305 2825 
Q 1016 2553 972 2059 
L 3022 2063 
z
" transform="scale(0.015625)"/>
       <path id="DejaVuSans-43c" d="M 581 3500 
L 1422 3500 
L 2416 1156 
L 3413 3500 
L 4247 3500 
L 4247 0 
L 3669 0 
L 3669 2950 
L 2703 672 
L 2128 672 
L 1159 2950 
L 1159 0 
L 581 0 
L 581 3500 
z
" transform="scale(0.015625)"/>
       <path id="DejaVuSans-44f" d="M 1181 2491 
Q 1181 2231 1381 2084 
Q 1581 1938 1953 1938 
L 2728 1938 
L 2728 3041 
L 1953 3041 
Q 1581 3041 1381 2897 
Q 1181 2753 1181 2491 
z
M 363 0 
L 1431 1534 
Q 1069 1616 828 1830 
Q 588 2044 588 2491 
Q 588 2997 923 3248 
Q 1259 3500 1938 3500 
L 3306 3500 
L 3306 0 
L 2728 0 
L 2728 1478 
L 2013 1478 
L 981 0 
L 363 0 
z
" transform="scale(0.015625)"/>
       <path id="DejaVuSans-2c" d="M 750 794 
L 1409 794 
L 1409 256 
L 897 -744 
L 494 -744 
L 750 256 
L 750 794 
z
" transform="scale(0.015625)"/>
       <path id="DejaVuSans-20" transform="scale(0.015625)"/>
       <path id="DejaVuSans-441" d="M 3122 3366 
L 3122 2828 
Q 2878 2963 2633 3030 
Q 2388 3097 2138 3097 
Q 1578 3097 1268 2742 
Q 959 2388 959 1747 
Q 959 1106 1268 751 
Q 1578 397 2138 397 
Q 2388 397 2633 464 
Q 2878 531 3122 666 
L 3122 134 
Q 2881 22 2623 -34 
Q 2366 -91 2075 -91 
Q 1284 -91 818 406 
Q 353 903 353 1747 
Q 353 2603 823 3093 
Q 1294 3584 2113 3584 
Q 2378 3584 2631 3529 
Q 2884 3475 3122 3366 
z
" transform="scale(0.015625)"/>
      </defs>
      <use xlink:href="#DejaVuSans-412"/>
      <use xlink:href="#DejaVuSans-440" x="68.603516"/>
      <use xlink:href="#DejaVuSans-435" x="132.080078"/>
      <use xlink:href="#DejaVuSans-43c" x="193.603516"/>
      <use xlink:href="#DejaVuSans-44f" x="269.042969"/>
      <use xlink:href="#DejaVuSans-2c" x="329.199219"/>
      <use xlink:href="#DejaVuSans-20" x="360.986328"/>
      <use xlink:href="#DejaVuSans-441" x="392.773438"/>
     </g>
    </g>
   </g>
   <g id="matplotlib.axis_2">
    <g id="ytick_1">
     <g id="line2d_13">
      <path d="M 184.32 633.95882 
L 1327.104 633.95882 
" clip-path="url(#p4d75471125)" style="fill: none; stroke: #b0b0b0; stroke-width: 0.8; stroke-linecap: square"/>
     </g>
     <g id="line2d_14">
      <defs>
       <path id="m00183287e5" d="M 0 0 
L -3.5 0 
" style="stroke: #000000; stroke-width: 0.8"/>
      </defs>
      <g>
       <use xlink:href="#m00183287e5" x="184.32" y="633.95882" style="stroke: #000000; stroke-width: 0.8"/>
      </g>
     </g>
     <g id="text_8">
      <!-- 0.0 -->
      <g transform="translate(161.416875 637.758039) scale(0.1 -0.1)">
       <defs>
        <path id="DejaVuSans-2e" d="M 684 794 
L 1344 794 
L 1344 0 
L 684 0 
L 684 794 
z
" transform="scale(0.015625)"/>
       </defs>
       <use xlink:href="#DejaVuSans-30"/>
       <use xlink:href="#DejaVuSans-2e" x="63.623047"/>
       <use xlink:href="#DejaVuSans-30" x="95.410156"/>
      </g>
     </g>
    </g>
    <g id="ytick_2">
     <g id="line2d_15">
      <path d="M 184.32 530.655478 
L 1327.104 530.655478 
" clip-path="url(#p4d75471125)" style="fill: none; stroke: #b0b0b0; stroke-width: 0.8; stroke-linecap: square"/>
     </g>
     <g id="line2d_16">
      <g>
       <use xlink:href="#m00183287e5" x="184.32" y="530.655478" style="stroke: #000000; stroke-width: 0.8"/>
      </g>
     </g>
     <g id="text_9">
      <!-- 0.2 -->
      <g transform="translate(161.416875 534.454697) scale(0.1 -0.1)">
       <use xlink:href="#DejaVuSans-30"/>
       <use xlink:href="#DejaVuSans-2e" x="63.623047"/>
       <use xlink:href="#DejaVuSans-32" x="95.410156"/>
      </g>
     </g>
    </g>
    <g id="ytick_3">
     <g id="line2d_17">
      <path d="M 184.32 427.352137 
L 1327.104 427.352137 
" clip-path="url(#p4d75471125)" style="fill: none; stroke: #b0b0b0; stroke-width: 0.8; stroke-linecap: square"/>
     </g>
     <g id="line2d_18">
      <g>
       <use xlink:href="#m00183287e5" x="184.32" y="427.352137" style="stroke: #000000; stroke-width: 0.8"/>
      </g>
     </g>
     <g id="text_10">
      <!-- 0.4 -->
      <g transform="translate(161.416875 431.151355) scale(0.1 -0.1)">
       <use xlink:href="#DejaVuSans-30"/>
       <use xlink:href="#DejaVuSans-2e" x="63.623047"/>
       <use xlink:href="#DejaVuSans-34" x="95.410156"/>
      </g>
     </g>
    </g>
    <g id="ytick_4">
     <g id="line2d_19">
      <path d="M 184.32 324.048795 
L 1327.104 324.048795 
" clip-path="url(#p4d75471125)" style="fill: none; stroke: #b0b0b0; stroke-width: 0.8; stroke-linecap: square"/>
     </g>
     <g id="line2d_20">
      <g>
       <use xlink:href="#m00183287e5" x="184.32" y="324.048795" style="stroke: #000000; stroke-width: 0.8"/>
      </g>
     </g>
     <g id="text_11">
      <!-- 0.6 -->
      <g transform="translate(161.416875 327.848014) scale(0.1 -0.1)">
       <use xlink:href="#DejaVuSans-30"/>
       <use xlink:href="#DejaVuSans-2e" x="63.623047"/>
       <use xlink:href="#DejaVuSans-36" x="95.410156"/>
      </g>
     </g>
    </g>
    <g id="ytick_5">
     <g id="line2d_21">
      <path d="M 184.32 220.745453 
L 1327.104 220.745453 
" clip-path="url(#p4d75471125)" style="fill: none; stroke: #b0b0b0; stroke-width: 0.8; stroke-linecap: square"/>
     </g>
     <g id="line2d_22">
      <g>
       <use xlink:href="#m00183287e5" x="184.32" y="220.745453" style="stroke: #000000; stroke-width: 0.8"/>
      </g>
     </g>
     <g id="text_12">
      <!-- 0.8 -->
      <g transform="translate(161.416875 224.544672) scale(0.1 -0.1)">
       <use xlink:href="#DejaVuSans-30"/>
       <use xlink:href="#DejaVuSans-2e" x="63.623047"/>
       <use xlink:href="#DejaVuSans-38" x="95.410156"/>
      </g>
     </g>
    </g>
    <g id="ytick_6">
     <g id="line2d_23">
      <path d="M 184.32 117.442112 
L 1327.104 117.442112 
" clip-path="url(#p4d75471125)" style="fill: none; stroke: #b0b0b0; stroke-width: 0.8; stroke-linecap: square"/>
     </g>
     <g id="line2d_24">
      <g>
       <use xlink:href="#m00183287e5" x="184.32" y="117.442112" style="stroke: #000000; stroke-width: 0.8"/>
      </g>
     </g>
     <g id="text_13">
      <!-- 1.0 -->
      <g transform="translate(161.416875 121.241331) scale(0.1 -0.1)">
       <use xlink:href="#DejaVuSans-31"/>
       <use xlink:href="#DejaVuSans-2e" x="63.623047"/>
       <use xlink:href="#DejaVuSans-30" x="95.410156"/>
      </g>
     </g>
    </g>
    <g id="text_14">
     <!-- Компоненты кватерниона -->
     <g transform="translate(154.505313 478.353721) rotate(-90) scale(0.14 -0.14)">
      <defs>
       <path id="DejaVuSans-41a" d="M 628 4666 
L 1259 4666 
L 1259 2359 
L 3516 4666 
L 4325 4666 
L 2522 2822 
L 4419 0 
L 3731 0 
L 2113 2403 
L 1259 1531 
L 1259 0 
L 628 0 
L 628 4666 
z
" transform="scale(0.015625)"/>
       <path id="DejaVuSans-43e" d="M 1959 3097 
Q 1497 3097 1228 2736 
Q 959 2375 959 1747 
Q 959 1119 1226 758 
Q 1494 397 1959 397 
Q 2419 397 2687 759 
Q 2956 1122 2956 1747 
Q 2956 2369 2687 2733 
Q 2419 3097 1959 3097 
z
M 1959 3584 
Q 2709 3584 3137 3096 
Q 3566 2609 3566 1747 
Q 3566 888 3137 398 
Q 2709 -91 1959 -91 
Q 1206 -91 779 398 
Q 353 888 353 1747 
Q 353 2609 779 3096 
Q 1206 3584 1959 3584 
z
" transform="scale(0.015625)"/>
       <path id="DejaVuSans-43f" d="M 3603 3500 
L 3603 0 
L 3025 0 
L 3025 3041 
L 1159 3041 
L 1159 0 
L 581 0 
L 581 3500 
L 3603 3500 
z
" transform="scale(0.015625)"/>
       <path id="DejaVuSans-43d" d="M 581 3500 
L 1159 3500 
L 1159 2072 
L 3025 2072 
L 3025 3500 
L 3603 3500 
L 3603 0 
L 3025 0 
L 3025 1613 
L 1159 1613 
L 1159 0 
L 581 0 
L 581 3500 
z
" transform="scale(0.015625)"/>
       <path id="DejaVuSans-442" d="M 188 3500 
L 3541 3500 
L 3541 3041 
L 2147 3041 
L 2147 0 
L 1581 0 
L 1581 3041 
L 188 3041 
L 188 3500 
z
" transform="scale(0.015625)"/>
       <path id="DejaVuSans-44b" d="M 3907 3500 
L 4482 3500 
L 4482 0 
L 3907 0 
L 3907 3500 
z
M 4195 3584 
L 4195 3584 
z
M 2781 1038 
Q 2781 1319 2576 1466 
Q 2372 1613 1978 1613 
L 1159 1613 
L 1159 459 
L 1978 459 
Q 2372 459 2576 607 
Q 2781 756 2781 1038 
z
M 581 3500 
L 1159 3500 
L 1159 2072 
L 2003 2072 
Q 2672 2072 3033 1817 
Q 3394 1563 3394 1038 
Q 3394 513 3033 256 
Q 2672 0 2003 0 
L 581 0 
L 581 3500 
z
" transform="scale(0.015625)"/>
       <path id="DejaVuSans-43a" d="M 581 3500 
L 1153 3500 
L 1153 1856 
L 2775 3500 
L 3481 3500 
L 2144 2147 
L 3653 0 
L 3009 0 
L 1769 1766 
L 1153 1141 
L 1153 0 
L 581 0 
L 581 3500 
z
" transform="scale(0.015625)"/>
       <path id="DejaVuSans-432" d="M 1156 1613 
L 1156 459 
L 1975 459 
Q 2369 459 2575 607 
Q 2781 756 2781 1038 
Q 2781 1319 2575 1466 
Q 2369 1613 1975 1613 
L 1156 1613 
z
M 1156 3041 
L 1156 2072 
L 1913 2072 
Q 2238 2072 2444 2201 
Q 2650 2331 2650 2563 
Q 2650 2794 2444 2917 
Q 2238 3041 1913 3041 
L 1156 3041 
z
M 581 3500 
L 1950 3500 
Q 2566 3500 2897 3275 
Q 3228 3050 3228 2634 
Q 3228 2313 3059 2123 
Q 2891 1934 2559 1888 
Q 2956 1813 3175 1575 
Q 3394 1338 3394 981 
Q 3394 513 3033 256 
Q 2672 0 2003 0 
L 581 0 
L 581 3500 
z
" transform="scale(0.015625)"/>
       <path id="DejaVuSans-430" d="M 2194 1759 
Q 1497 1759 1228 1600 
Q 959 1441 959 1056 
Q 959 750 1161 570 
Q 1363 391 1709 391 
Q 2188 391 2477 730 
Q 2766 1069 2766 1631 
L 2766 1759 
L 2194 1759 
z
M 3341 1997 
L 3341 0 
L 2766 0 
L 2766 531 
Q 2569 213 2275 61 
Q 1981 -91 1556 -91 
Q 1019 -91 701 211 
Q 384 513 384 1019 
Q 384 1609 779 1909 
Q 1175 2209 1959 2209 
L 2766 2209 
L 2766 2266 
Q 2766 2663 2505 2880 
Q 2244 3097 1772 3097 
Q 1472 3097 1187 3025 
Q 903 2953 641 2809 
L 641 3341 
Q 956 3463 1253 3523 
Q 1550 3584 1831 3584 
Q 2591 3584 2966 3190 
Q 3341 2797 3341 1997 
z
" transform="scale(0.015625)"/>
       <path id="DejaVuSans-438" d="M 3578 3500 
L 3578 0 
L 3006 0 
L 3006 2809 
L 1319 0 
L 581 0 
L 581 3500 
L 1153 3500 
L 1153 697 
L 2838 3500 
L 3578 3500 
z
" transform="scale(0.015625)"/>
      </defs>
      <use xlink:href="#DejaVuSans-41a"/>
      <use xlink:href="#DejaVuSans-43e" x="70.996094"/>
      <use xlink:href="#DejaVuSans-43c" x="132.177734"/>
      <use xlink:href="#DejaVuSans-43f" x="207.617188"/>
      <use xlink:href="#DejaVuSans-43e" x="272.998047"/>
      <use xlink:href="#DejaVuSans-43d" x="334.179688"/>
      <use xlink:href="#DejaVuSans-435" x="399.560547"/>
      <use xlink:href="#DejaVuSans-43d" x="461.083984"/>
      <use xlink:href="#DejaVuSans-442" x="526.464844"/>
      <use xlink:href="#DejaVuSans-44b" x="584.716797"/>
      <use xlink:href="#DejaVuSans-20" x="663.671875"/>
      <use xlink:href="#DejaVuSans-43a" x="695.458984"/>
      <use xlink:href="#DejaVuSans-432" x="755.859375"/>
      <use xlink:href="#DejaVuSans-430" x="814.794922"/>
      <use xlink:href="#DejaVuSans-442" x="876.074219"/>
      <use xlink:href="#DejaVuSans-435" x="934.326172"/>
      <use xlink:href="#DejaVuSans-440" x="995.849609"/>
      <use xlink:href="#DejaVuSans-43d" x="1059.326172"/>
      <use xlink:href="#DejaVuSans-438" x="1124.707031"/>
      <use xlink:href="#DejaVuSans-43e" x="1189.697266"/>
      <use xlink:href="#DejaVuSans-43d" x="1250.878906"/>
      <use xlink:href="#DejaVuSans-430" x="1316.259766"/>
     </g>
    </g>
   </g>
   <g id="line2d_25">
    <path d="M 236.264727 117.442112 
L 246.653673 117.445121 
L 257.042618 117.475894 
L 267.431564 117.591214 
L 277.820509 117.874027 
L 288.209455 118.423318 
L 298.5984 119.323417 
L 308.987345 120.621442 
L 319.376291 122.325549 
L 329.765236 124.404931 
L 340.154182 126.789819 
L 350.543127 129.37148 
L 360.932073 132.00222 
L 371.321018 134.495383 
L 381.709964 136.607787 
L 392.098909 138.167279 
L 402.487855 139.243975 
L 412.8768 139.900314 
L 423.265745 140.200575 
L 433.654691 140.210877 
L 444.043636 139.999178 
L 454.432582 139.635278 
L 464.821527 139.190814 
L 475.210473 138.739265 
L 485.599418 138.355948 
L 495.988364 138.118023 
L 506.377309 138.104486 
L 516.766255 138.29925 
L 527.1552 138.750328 
L 537.544145 139.194639 
L 547.933091 139.581024 
L 558.322036 139.874262 
L 568.710982 140.055074 
L 579.099927 140.120119 
L 589.488873 140.081999 
L 599.877818 139.969254 
L 610.266764 139.826366 
L 620.655709 139.713757 
L 631.044655 139.707787 
L 641.4336 139.900759 
L 651.822545 140.335778 
L 662.211491 141.160856 
L 672.600436 142.093964 
L 682.989382 142.924308 
L 693.378327 143.481953 
L 703.767273 143.637826 
L 714.156218 143.303714 
L 724.545164 142.432268 
L 734.934109 141.016999 
L 745.323055 139.092278 
L 755.712 136.733341 
L 766.100945 134.056283 
L 776.489891 131.285258 
L 786.878836 128.539585 
L 797.267782 126.005941 
L 807.656727 123.745671 
L 818.045673 121.80342 
L 828.434618 120.207138 
L 838.823564 118.968076 
L 849.212509 118.080787 
L 859.601455 117.523128 
L 869.9904 117.256259 
L 880.379345 117.22464 
L 890.768291 117.356036 
L 901.157236 117.561514 
L 911.546182 117.762157 
L 921.935127 118.041158 
L 932.324073 118.564367 
L 942.713018 119.417542 
L 953.101964 120.653751 
L 963.490909 122.293373 
L 973.879855 124.324105 
L 984.2688 126.700951 
L 994.657745 129.346233 
L 1005.046691 132.149581 
L 1015.435636 134.967942 
L 1025.824582 137.625572 
L 1036.213527 139.914043 
L 1046.602473 141.681685 
L 1056.991418 142.705386 
L 1067.380364 143.176851 
L 1077.769309 143.204688 
L 1088.158255 142.89295 
L 1098.5472 142.341138 
L 1108.936145 141.644199 
L 1119.325091 140.892528 
L 1129.714036 140.171966 
L 1140.102982 139.5638 
L 1150.491927 139.144767 
L 1160.880873 138.987047 
L 1171.269818 139.140353 
L 1181.658764 139.44376 
L 1192.047709 139.787428 
L 1202.436655 140.094091 
L 1212.8256 140.313619 
L 1223.214545 140.423022 
L 1233.603491 140.426447 
L 1243.992436 140.355177 
L 1254.381382 140.267636 
L 1264.770327 140.249384 
L 1275.159273 140.41312 
" clip-path="url(#p4d75471125)" style="fill: none; stroke: #1f77b4; stroke-width: 1.5; stroke-linecap: square"/>
   </g>
   <g id="line2d_26">
    <path d="M 236.264727 633.95882 
L 246.653673 633.572815 
L 257.042618 632.422889 
L 267.431564 630.526507 
L 277.820509 627.907817 
L 288.209455 624.596913 
L 298.5984 620.633602 
L 308.987345 616.062493 
L 319.376291 610.932012 
L 329.765236 605.294403 
L 340.154182 599.205728 
L 350.543127 592.725867 
L 360.932073 585.918517 
L 371.321018 578.851193 
L 381.709964 571.575731 
L 392.098909 564.145286 
L 402.487855 556.675163 
L 412.8768 549.272268 
L 423.265745 542.035028 
L 433.654691 535.053394 
L 444.043636 528.408838 
L 454.432582 522.174357 
L 464.821527 516.414467 
L 475.210473 511.185211 
L 485.599418 506.534149 
L 495.988364 502.500369 
L 506.377309 499.114478 
L 516.766255 496.371871 
L 527.1552 494.285893 
L 537.544145 492.775873 
L 547.933091 491.815292 
L 558.322036 491.384018 
L 568.710982 491.468306 
L 579.099927 492.060798 
L 589.488873 493.160521 
L 599.877818 494.772893 
L 610.266764 496.909714 
L 620.655709 499.589175 
L 631.044655 502.835852 
L 641.4336 506.680707 
L 651.822545 511.144813 
L 662.211491 516.256641 
L 672.600436 521.92305 
L 682.989382 528.068934 
L 693.378327 534.618001 
L 703.767273 541.492779 
L 714.156218 548.614614 
L 724.545164 555.90367 
L 734.934109 563.278929 
L 745.323055 570.65819 
L 755.712 577.958072 
L 766.100945 585.094011 
L 776.489891 591.986437 
L 786.878836 598.55215 
L 797.267782 604.718793 
L 807.656727 610.410731 
L 818.045673 615.561133 
L 828.434618 620.11197 
L 838.823564 624.014016 
L 849.212509 627.22685 
L 859.601455 629.718854 
L 869.9904 631.467211 
L 880.379345 632.45791 
L 890.768291 632.685743 
L 901.157236 632.154304 
L 911.546182 630.875946 
L 921.935127 628.869406 
L 932.324073 626.16077 
L 942.713018 622.781357 
L 953.101964 618.76717 
L 963.490909 614.158901 
L 973.879855 609.001922 
L 984.2688 603.346295 
L 994.657745 597.246765 
L 1005.046691 590.762763 
L 1015.435636 583.958403 
L 1025.824582 576.902489 
L 1036.213527 569.668504 
L 1046.602473 562.328727 
L 1056.991418 554.917841 
L 1067.380364 547.563942 
L 1077.769309 540.376472 
L 1088.158255 533.453991 
L 1098.5472 526.884185 
L 1108.936145 520.743858 
L 1119.325091 515.098936 
L 1129.714036 510.004466 
L 1140.102982 505.504618 
L 1150.491927 501.632682 
L 1160.880873 498.411069 
L 1171.269818 495.84939 
L 1181.658764 493.903765 
L 1192.047709 492.529378 
L 1202.436655 491.690874 
L 1212.8256 491.363398 
L 1223.214545 491.53259 
L 1233.603491 492.194591 
L 1243.992436 493.35604 
L 1254.381382 495.034072 
L 1264.770327 497.256322 
L 1275.159273 500.060923 
" clip-path="url(#p4d75471125)" style="fill: none; stroke: #ff7f0e; stroke-width: 1.5; stroke-linecap: square"/>
   </g>
   <g id="line2d_27">
    <path d="M 236.264727 633.95882 
L 246.653673 635.247936 
L 257.042618 636.524106 
L 267.431564 637.773803 
L 277.820509 638.982337 
L 288.209455 640.133191 
L 298.5984 641.204562 
L 308.987345 642.16992 
L 319.376291 642.998266 
L 329.765236 643.654126 
L 340.154182 644.097556 
L 350.543127 644.28414 
L 360.932073 644.164989 
L 371.321018 643.686744 
L 381.709964 642.80281 
L 392.098909 641.48033 
L 402.487855 639.678658 
L 412.8768 637.376279 
L 423.265745 634.571268 
L 433.654691 631.281282 
L 444.043636 627.543565 
L 454.432582 623.414949 
L 464.821527 618.971848 
L 475.210473 614.310264 
L 485.599418 609.545785 
L 495.988364 604.813583 
L 506.377309 600.268418 
L 516.766255 596.076736 
L 527.1552 592.361619 
L 537.544145 589.184133 
L 547.933091 586.621226 
L 558.322036 584.728419 
L 568.710982 583.539803 
L 579.099927 583.068041 
L 589.488873 583.304365 
L 599.877818 584.21858 
L 610.266764 585.759062 
L 620.655709 587.852757 
L 631.044655 590.405182 
L 641.4336 593.300426 
L 651.822545 596.396244 
L 662.211491 599.584969 
L 672.600436 602.775754 
L 682.989382 605.88296 
L 693.378327 608.837466 
L 703.767273 611.58667 
L 714.156218 614.094493 
L 724.545164 616.341373 
L 734.934109 618.324267 
L 745.323055 620.056653 
L 755.712 621.56853 
L 766.100945 622.906413 
L 776.489891 624.133963 
L 786.878836 625.297775 
L 797.267782 626.4253 
L 807.656727 627.539516 
L 818.045673 628.658909 
L 828.434618 629.797474 
L 838.823564 630.964716 
L 849.212509 632.165647 
L 859.601455 633.40079 
L 869.9904 634.666175 
L 880.379345 635.953342 
L 890.768291 637.249338 
L 901.157236 638.536722 
L 911.546182 639.793972 
L 921.935127 641.008146 
L 932.324073 642.166195 
L 942.713018 643.2496 
L 953.101964 644.235723 
L 963.490909 645.097802 
L 973.879855 645.804956 
L 984.2688 646.322183 
L 994.657745 646.610359 
L 1005.046691 646.62624 
L 1015.435636 646.32246 
L 1025.824582 645.647534 
L 1036.213527 644.545853 
L 1046.602473 642.966371 
L 1056.991418 640.897264 
L 1067.380364 638.325068 
L 1077.769309 635.255681 
L 1088.158255 631.71389 
L 1098.5472 627.743371 
L 1108.936145 623.406689 
L 1119.325091 618.785297 
L 1129.714036 613.979539 
L 1140.102982 609.108646 
L 1150.491927 604.310739 
L 1160.880873 599.742829 
L 1171.269818 595.566945 
L 1181.658764 591.864666 
L 1192.047709 588.730552 
L 1202.436655 586.243716 
L 1212.8256 584.45939 
L 1223.214545 583.408928 
L 1233.603491 583.099803 
L 1243.992436 583.515608 
L 1254.381382 584.616057 
L 1264.770327 586.336982 
L 1275.159273 588.590338 
" clip-path="url(#p4d75471125)" style="fill: none; stroke: #2ca02c; stroke-width: 1.5; stroke-linecap: square"/>
   </g>
   <g id="line2d_28">
    <path d="M 236.264727 633.95882 
L 246.653673 632.67135 
L 257.042618 628.859686 
L 267.431564 622.674259 
L 277.820509 614.350916 
L 288.209455 604.16932 
L 298.5984 592.623506 
L 308.987345 580.230519 
L 319.376291 567.489298 
L 329.765236 554.880676 
L 340.154182 542.867384 
L 350.543127 531.894046 
L 360.932073 522.387185 
L 371.321018 514.755216 
L 381.709964 509.381624 
L 392.098909 506.44142 
L 402.487855 505.952247 
L 412.8768 507.867819 
L 423.265745 512.082469 
L 433.654691 518.431147 
L 444.043636 526.689422 
L 454.432582 536.573481 
L 464.821527 547.74013 
L 475.210473 559.786791 
L 485.599418 572.251506 
L 495.988364 584.612935 
L 506.377309 596.290355 
L 516.766255 606.640548 
L 527.1552 615.249581 
L 537.544145 621.862342 
L 547.933091 626.229151 
L 558.322036 628.185777 
L 568.710982 627.65344 
L 579.099927 624.638809 
L 589.488873 619.234002 
L 599.877818 611.616589 
L 610.266764 602.049586 
L 620.655709 590.881463 
L 631.044655 578.546137 
L 641.4336 565.562975 
L 651.822545 552.525732 
L 662.211491 539.941045 
L 672.600436 528.23353 
L 682.989382 517.885728 
L 693.378327 509.294765 
L 703.767273 502.772345 
L 714.156218 498.544758 
L 724.545164 496.752875 
L 734.934109 497.45215 
L 745.323055 500.612618 
L 755.712 506.118898 
L 766.100945 513.770191 
L 776.489891 523.305333 
L 786.878836 534.490686 
L 797.267782 546.785321 
L 807.656727 559.559673 
L 818.045673 572.242607 
L 828.434618 584.321417 
L 838.823564 595.341821 
L 849.212509 604.907972 
L 859.601455 612.682445 
L 869.9904 618.386248 
L 880.379345 621.798815 
L 890.768291 622.75801 
L 901.157236 621.160123 
L 911.546182 616.95468 
L 921.935127 610.202482 
L 932.324073 601.337536 
L 942.713018 590.847237 
L 953.101964 579.20691 
L 963.490909 566.879806 
L 973.879855 554.317104 
L 984.2688 541.957915 
L 994.657745 530.229273 
L 1005.046691 519.546145 
L 1015.435636 510.311424 
L 1025.824582 502.91593 
L 1036.213527 497.738414 
L 1046.602473 495.112189 
L 1056.991418 494.992606 
L 1067.380364 497.311173 
L 1077.769309 501.926003 
L 1088.158255 508.641111 
L 1098.5472 517.20642 
L 1108.936145 527.317753 
L 1119.325091 538.61684 
L 1129.714036 550.691313 
L 1140.102982 563.074709 
L 1150.491927 575.246468 
L 1160.880873 586.631936 
L 1171.269818 596.646834 
L 1181.658764 604.960635 
L 1192.047709 611.244846 
L 1202.436655 615.238975 
L 1212.8256 616.777563 
L 1223.214545 615.790179 
L 1233.603491 612.301422 
L 1243.992436 606.430921 
L 1254.381382 598.393335 
L 1264.770327 588.498353 
L 1275.159273 577.150694 
" clip-path="url(#p4d75471125)" style="fill: none; stroke: #d62728; stroke-width: 1.5; stroke-linecap: square"/>
   </g>
   <g id="patch_3">
    <path d="M 184.32 673.09632 
L 184.32 90.75456 
" style="fill: none; stroke: #000000; stroke-width: 0.8; stroke-linejoin: miter; stroke-linecap: square"/>
   </g>
   <g id="patch_4">
    <path d="M 1327.104 673.09632 
L 1327.104 90.75456 
" style="fill: none; stroke: #000000; stroke-width: 0.8; stroke-linejoin: miter; stroke-linecap: square"/>
   </g>
   <g id="patch_5">
    <path d="M 184.32 673.09632 
L 1327.104 673.09632 
" style="fill: none; stroke: #000000; stroke-width: 0.8; stroke-linejoin: miter; stroke-linecap: square"/>
   </g>
   <g id="patch_6">
    <path d="M 184.32 90.75456 
L 1327.104 90.75456 
" style="fill: none; stroke: #000000; stroke-width: 0.8; stroke-linejoin: miter; stroke-linecap: square"/>
   </g>
   <g id="legend_1">
    <g id="patch_7">
     <path d="M 1275.393063 668.09632 
L 1320.104 668.09632 
Q 1322.104 668.09632 1322.104 666.09632 
L 1322.104 608.38382 
Q 1322.104 606.38382 1320.104 606.38382 
L 1275.393063 606.38382 
Q 1273.393063 606.38382 1273.393063 608.38382 
L 1273.393063 666.09632 
Q 1273.393063 668.09632 1275.393063 668.09632 
z
" style="fill: #ffffff; opacity: 0.8; stroke: #cccccc; stroke-linejoin: miter"/>
    </g>
    <g id="line2d_29">
     <path d="M 1277.393063 614.482258 
L 1287.393063 614.482258 
L 1297.393063 614.482258 
" style="fill: none; stroke: #1f77b4; stroke-width: 1.5; stroke-linecap: square"/>
    </g>
    <g id="text_15">
     <!-- q0 -->
     <g transform="translate(1305.393063 617.982258) scale(0.1 -0.1)">
      <defs>
       <path id="DejaVuSans-71" d="M 947 1747 
Q 947 1113 1208 752 
Q 1469 391 1925 391 
Q 2381 391 2643 752 
Q 2906 1113 2906 1747 
Q 2906 2381 2643 2742 
Q 2381 3103 1925 3103 
Q 1469 3103 1208 2742 
Q 947 2381 947 1747 
z
M 2906 525 
Q 2725 213 2448 61 
Q 2172 -91 1784 -91 
Q 1150 -91 751 415 
Q 353 922 353 1747 
Q 353 2572 751 3078 
Q 1150 3584 1784 3584 
Q 2172 3584 2448 3432 
Q 2725 3281 2906 2969 
L 2906 3500 
L 3481 3500 
L 3481 -1331 
L 2906 -1331 
L 2906 525 
z
" transform="scale(0.015625)"/>
      </defs>
      <use xlink:href="#DejaVuSans-71"/>
      <use xlink:href="#DejaVuSans-30" x="63.476562"/>
     </g>
    </g>
    <g id="line2d_30">
     <path d="M 1277.393063 629.160382 
L 1287.393063 629.160382 
L 1297.393063 629.160382 
" style="fill: none; stroke: #ff7f0e; stroke-width: 1.5; stroke-linecap: square"/>
    </g>
    <g id="text_16">
     <!-- q1 -->
     <g transform="translate(1305.393063 632.660382) scale(0.1 -0.1)">
      <use xlink:href="#DejaVuSans-71"/>
      <use xlink:href="#DejaVuSans-31" x="63.476562"/>
     </g>
    </g>
    <g id="line2d_31">
     <path d="M 1277.393063 643.838507 
L 1287.393063 643.838507 
L 1297.393063 643.838507 
" style="fill: none; stroke: #2ca02c; stroke-width: 1.5; stroke-linecap: square"/>
    </g>
    <g id="text_17">
     <!-- q2 -->
     <g transform="translate(1305.393063 647.338507) scale(0.1 -0.1)">
      <use xlink:href="#DejaVuSans-71"/>
      <use xlink:href="#DejaVuSans-32" x="63.476562"/>
     </g>
    </g>
    <g id="line2d_32">
     <path d="M 1277.393063 658.516633 
L 1287.393063 658.516633 
L 1297.393063 658.516633 
" style="fill: none; stroke: #d62728; stroke-width: 1.5; stroke-linecap: square"/>
    </g>
    <g id="text_18">
     <!-- q3 -->
     <g transform="translate(1305.393063 662.016633) scale(0.1 -0.1)">
      <defs>
       <path id="DejaVuSans-33" d="M 2597 2516 
Q 3050 2419 3304 2112 
Q 3559 1806 3559 1356 
Q 3559 666 3084 287 
Q 2609 -91 1734 -91 
Q 1441 -91 1130 -33 
Q 819 25 488 141 
L 488 750 
Q 750 597 1062 519 
Q 1375 441 1716 441 
Q 2309 441 2620 675 
Q 2931 909 2931 1356 
Q 2931 1769 2642 2001 
Q 2353 2234 1838 2234 
L 1294 2234 
L 1294 2753 
L 1863 2753 
Q 2328 2753 2575 2939 
Q 2822 3125 2822 3475 
Q 2822 3834 2567 4026 
Q 2313 4219 1838 4219 
Q 1578 4219 1281 4162 
Q 984 4106 628 3988 
L 628 4550 
Q 988 4650 1302 4700 
Q 1616 4750 1894 4750 
Q 2613 4750 3031 4423 
Q 3450 4097 3450 3541 
Q 3450 3153 3228 2886 
Q 3006 2619 2597 2516 
z
" transform="scale(0.015625)"/>
      </defs>
      <use xlink:href="#DejaVuSans-71"/>
      <use xlink:href="#DejaVuSans-33" x="63.476562"/>
     </g>
    </g>
   </g>
  </g>
 </g>
 <defs>
  <clipPath id="p4d75471125">
   <rect x="184.32" y="90.75456" width="1142.784" height="582.34176"/>
  </clipPath>
 </defs>
</svg>
