<?xml version="1.0" encoding="utf-8" standalone="no"?>
<!DOCTYPE svg PUBLIC "-//W3C//DTD SVG 1.1//EN"
  "http://www.w3.org/Graphics/SVG/1.1/DTD/svg11.dtd">
<svg xmlns:xlink="http://www.w3.org/1999/xlink" width="1474.56pt" height="756.288pt" viewBox="0 0 1474.56 756.288" xmlns="http://www.w3.org/2000/svg" version="1.1">
 <metadata>
  <rdf:RDF xmlns:dc="http://purl.org/dc/elements/1.1/" xmlns:cc="http://creativecommons.org/ns#" xmlns:rdf="http://www.w3.org/1999/02/22-rdf-syntax-ns#">
   <cc:Work>
    <dc:type rdf:resource="http://purl.org/dc/dcmitype/StillImage"/>
    <dc:date>2025-04-07T13:23:37.156060</dc:date>
    <dc:format>image/svg+xml</dc:format>
    <dc:creator>
     <cc:Agent>
      <dc:title>Matplotlib v3.9.4, https://matplotlib.org/</dc:title>
     </cc:Agent>
    </dc:creator>
   </cc:Work>
  </rdf:RDF>
 </metadata>
 <defs>
  <style type="text/css">*{stroke-linejoin: round; stroke-linecap: butt}</style>
 </defs>
 <g id="figure_1">
  <g id="patch_1">
   <path d="M 0 756.288 
L 1474.56 756.288 
L 1474.56 0 
L 0 0 
z
" style="fill: #ffffff"/>
  </g>
  <g id="axes_1">
   <g id="patch_2">
    <path d="M 184.32 355.45536 
L 1327.104 355.45536 
L 1327.104 90.75456 
L 184.32 90.75456 
z
" style="fill: #ffffff"/>
   </g>
   <g id="matplotlib.axis_1">
    <g id="xtick_1">
     <g id="line2d_1">
      <path d="M 236.264727 355.45536 
L 236.264727 90.75456 
" clip-path="url(#p035a982e75)" style="fill: none; stroke: #b0b0b0; stroke-width: 0.8; stroke-linecap: square"/>
     </g>
     <g id="line2d_2">
      <defs>
       <path id="m40b13b121a" d="M 0 0 
L 0 3.5 
" style="stroke: #000000; stroke-width: 0.8"/>
      </defs>
      <g>
       <use xlink:href="#m40b13b121a" x="236.264727" y="355.45536" style="stroke: #000000; stroke-width: 0.8"/>
      </g>
     </g>
     <g id="text_1">
      <!-- 0 -->
      <g transform="translate(233.083477 370.053797) scale(0.1 -0.1)">
       <defs>
        <path id="DejaVuSans-30" d="M 2034 4250 
Q 1547 4250 1301 3770 
Q 1056 3291 1056 2328 
Q 1056 1369 1301 889 
Q 1547 409 2034 409 
Q 2525 409 2770 889 
Q 3016 1369 3016 2328 
Q 3016 3291 2770 3770 
Q 2525 4250 2034 4250 
z
M 2034 4750 
Q 2819 4750 3233 4129 
Q 3647 3509 3647 2328 
Q 3647 1150 3233 529 
Q 2819 -91 2034 -91 
Q 1250 -91 836 529 
Q 422 1150 422 2328 
Q 422 3509 836 4129 
Q 1250 4750 2034 4750 
z
" transform="scale(0.015625)"/>
       </defs>
       <use xlink:href="#DejaVuSans-30"/>
      </g>
     </g>
    </g>
    <g id="xtick_2">
     <g id="line2d_3">
      <path d="M 410.868853 355.45536 
L 410.868853 90.75456 
" clip-path="url(#p035a982e75)" style="fill: none; stroke: #b0b0b0; stroke-width: 0.8; stroke-linecap: square"/>
     </g>
     <g id="line2d_4">
      <g>
       <use xlink:href="#m40b13b121a" x="410.868853" y="355.45536" style="stroke: #000000; stroke-width: 0.8"/>
      </g>
     </g>
     <g id="text_2">
      <!-- 20 -->
      <g transform="translate(404.506353 370.053797) scale(0.1 -0.1)">
       <defs>
        <path id="DejaVuSans-32" d="M 1228 531 
L 3431 531 
L 3431 0 
L 469 0 
L 469 531 
Q 828 903 1448 1529 
Q 2069 2156 2228 2338 
Q 2531 2678 2651 2914 
Q 2772 3150 2772 3378 
Q 2772 3750 2511 3984 
Q 2250 4219 1831 4219 
Q 1534 4219 1204 4116 
Q 875 4013 500 3803 
L 500 4441 
Q 881 4594 1212 4672 
Q 1544 4750 1819 4750 
Q 2544 4750 2975 4387 
Q 3406 4025 3406 3419 
Q 3406 3131 3298 2873 
Q 3191 2616 2906 2266 
Q 2828 2175 2409 1742 
Q 1991 1309 1228 531 
z
" transform="scale(0.015625)"/>
       </defs>
       <use xlink:href="#DejaVuSans-32"/>
       <use xlink:href="#DejaVuSans-30" x="63.623047"/>
      </g>
     </g>
    </g>
    <g id="xtick_3">
     <g id="line2d_5">
      <path d="M 585.472978 355.45536 
L 585.472978 90.75456 
" clip-path="url(#p035a982e75)" style="fill: none; stroke: #b0b0b0; stroke-width: 0.8; stroke-linecap: square"/>
     </g>
     <g id="line2d_6">
      <g>
       <use xlink:href="#m40b13b121a" x="585.472978" y="355.45536" style="stroke: #000000; stroke-width: 0.8"/>
      </g>
     </g>
     <g id="text_3">
      <!-- 40 -->
      <g transform="translate(579.110478 370.053797) scale(0.1 -0.1)">
       <defs>
        <path id="DejaVuSans-34" d="M 2419 4116 
L 825 1625 
L 2419 1625 
L 2419 4116 
z
M 2253 4666 
L 3047 4666 
L 3047 1625 
L 3713 1625 
L 3713 1100 
L 3047 1100 
L 3047 0 
L 2419 0 
L 2419 1100 
L 313 1100 
L 313 1709 
L 2253 4666 
z
" transform="scale(0.015625)"/>
       </defs>
       <use xlink:href="#DejaVuSans-34"/>
       <use xlink:href="#DejaVuSans-30" x="63.623047"/>
      </g>
     </g>
    </g>
    <g id="xtick_4">
     <g id="line2d_7">
      <path d="M 760.077103 355.45536 
L 760.077103 90.75456 
" clip-path="url(#p035a982e75)" style="fill: none; stroke: #b0b0b0; stroke-width: 0.8; stroke-linecap: square"/>
     </g>
     <g id="line2d_8">
      <g>
       <use xlink:href="#m40b13b121a" x="760.077103" y="355.45536" style="stroke: #000000; stroke-width: 0.8"/>
      </g>
     </g>
     <g id="text_4">
      <!-- 60 -->
      <g transform="translate(753.714603 370.053797) scale(0.1 -0.1)">
       <defs>
        <path id="DejaVuSans-36" d="M 2113 2584 
Q 1688 2584 1439 2293 
Q 1191 2003 1191 1497 
Q 1191 994 1439 701 
Q 1688 409 2113 409 
Q 2538 409 2786 701 
Q 3034 994 3034 1497 
Q 3034 2003 2786 2293 
Q 2538 2584 2113 2584 
z
M 3366 4563 
L 3366 3988 
Q 3128 4100 2886 4159 
Q 2644 4219 2406 4219 
Q 1781 4219 1451 3797 
Q 1122 3375 1075 2522 
Q 1259 2794 1537 2939 
Q 1816 3084 2150 3084 
Q 2853 3084 3261 2657 
Q 3669 2231 3669 1497 
Q 3669 778 3244 343 
Q 2819 -91 2113 -91 
Q 1303 -91 875 529 
Q 447 1150 447 2328 
Q 447 3434 972 4092 
Q 1497 4750 2381 4750 
Q 2619 4750 2861 4703 
Q 3103 4656 3366 4563 
z
" transform="scale(0.015625)"/>
       </defs>
       <use xlink:href="#DejaVuSans-36"/>
       <use xlink:href="#DejaVuSans-30" x="63.623047"/>
      </g>
     </g>
    </g>
    <g id="xtick_5">
     <g id="line2d_9">
      <path d="M 934.681228 355.45536 
L 934.681228 90.75456 
" clip-path="url(#p035a982e75)" style="fill: none; stroke: #b0b0b0; stroke-width: 0.8; stroke-linecap: square"/>
     </g>
     <g id="line2d_10">
      <g>
       <use xlink:href="#m40b13b121a" x="934.681228" y="355.45536" style="stroke: #000000; stroke-width: 0.8"/>
      </g>
     </g>
     <g id="text_5">
      <!-- 80 -->
      <g transform="translate(928.318728 370.053797) scale(0.1 -0.1)">
       <defs>
        <path id="DejaVuSans-38" d="M 2034 2216 
Q 1584 2216 1326 1975 
Q 1069 1734 1069 1313 
Q 1069 891 1326 650 
Q 1584 409 2034 409 
Q 2484 409 2743 651 
Q 3003 894 3003 1313 
Q 3003 1734 2745 1975 
Q 2488 2216 2034 2216 
z
M 1403 2484 
Q 997 2584 770 2862 
Q 544 3141 544 3541 
Q 544 4100 942 4425 
Q 1341 4750 2034 4750 
Q 2731 4750 3128 4425 
Q 3525 4100 3525 3541 
Q 3525 3141 3298 2862 
Q 3072 2584 2669 2484 
Q 3125 2378 3379 2068 
Q 3634 1759 3634 1313 
Q 3634 634 3220 271 
Q 2806 -91 2034 -91 
Q 1263 -91 848 271 
Q 434 634 434 1313 
Q 434 1759 690 2068 
Q 947 2378 1403 2484 
z
M 1172 3481 
Q 1172 3119 1398 2916 
Q 1625 2713 2034 2713 
Q 2441 2713 2670 2916 
Q 2900 3119 2900 3481 
Q 2900 3844 2670 4047 
Q 2441 4250 2034 4250 
Q 1625 4250 1398 4047 
Q 1172 3844 1172 3481 
z
" transform="scale(0.015625)"/>
       </defs>
       <use xlink:href="#DejaVuSans-38"/>
       <use xlink:href="#DejaVuSans-30" x="63.623047"/>
      </g>
     </g>
    </g>
    <g id="xtick_6">
     <g id="line2d_11">
      <path d="M 1109.285354 355.45536 
L 1109.285354 90.75456 
" clip-path="url(#p035a982e75)" style="fill: none; stroke: #b0b0b0; stroke-width: 0.8; stroke-linecap: square"/>
     </g>
     <g id="line2d_12">
      <g>
       <use xlink:href="#m40b13b121a" x="1109.285354" y="355.45536" style="stroke: #000000; stroke-width: 0.8"/>
      </g>
     </g>
     <g id="text_6">
      <!-- 100 -->
      <g transform="translate(1099.741604 370.053797) scale(0.1 -0.1)">
       <defs>
        <path id="DejaVuSans-31" d="M 794 531 
L 1825 531 
L 1825 4091 
L 703 3866 
L 703 4441 
L 1819 4666 
L 2450 4666 
L 2450 531 
L 3481 531 
L 3481 0 
L 794 0 
L 794 531 
z
" transform="scale(0.015625)"/>
       </defs>
       <use xlink:href="#DejaVuSans-31"/>
       <use xlink:href="#DejaVuSans-30" x="63.623047"/>
       <use xlink:href="#DejaVuSans-30" x="127.246094"/>
      </g>
     </g>
    </g>
    <g id="xtick_7">
     <g id="line2d_13">
      <path d="M 1283.889479 355.45536 
L 1283.889479 90.75456 
" clip-path="url(#p035a982e75)" style="fill: none; stroke: #b0b0b0; stroke-width: 0.8; stroke-linecap: square"/>
     </g>
     <g id="line2d_14">
      <g>
       <use xlink:href="#m40b13b121a" x="1283.889479" y="355.45536" style="stroke: #000000; stroke-width: 0.8"/>
      </g>
     </g>
     <g id="text_7">
      <!-- 120 -->
      <g transform="translate(1274.345729 370.053797) scale(0.1 -0.1)">
       <use xlink:href="#DejaVuSans-31"/>
       <use xlink:href="#DejaVuSans-32" x="63.623047"/>
       <use xlink:href="#DejaVuSans-30" x="127.246094"/>
      </g>
     </g>
    </g>
    <g id="text_8">
     <!-- $\Phi$, град -->
     <g transform="translate(728.482 386.74286) scale(0.14 -0.14)">
      <defs>
       <path id="DejaVuSans-3a6" d="M 2206 3644 
Q 1738 3578 1431 3306 
Q 1025 2947 1025 2328 
Q 1025 1713 1431 1353 
Q 1738 1081 2206 1016 
L 2206 3644 
z
M 2838 1016 
Q 3306 1081 3613 1353 
Q 4013 1713 4013 2328 
Q 4013 2947 3613 3306 
Q 3306 3578 2838 3644 
L 2838 1016 
z
M 2206 494 
Q 1444 563 950 981 
Q 359 1481 359 2328 
Q 359 3175 950 3678 
Q 1441 4100 2206 4169 
L 2206 4666 
L 2838 4666 
L 2838 4169 
Q 3600 4097 4091 3678 
Q 4678 3175 4678 2328 
Q 4678 1484 4091 981 
Q 3600 563 2838 491 
L 2838 0 
L 2206 0 
L 2206 494 
z
" transform="scale(0.015625)"/>
       <path id="DejaVuSans-2c" d="M 750 794 
L 1409 794 
L 1409 256 
L 897 -744 
L 494 -744 
L 750 256 
L 750 794 
z
" transform="scale(0.015625)"/>
       <path id="DejaVuSans-20" transform="scale(0.015625)"/>
       <path id="DejaVuSans-433" d="M 581 0 
L 581 3500 
L 3050 3500 
L 3050 3041 
L 1159 3041 
L 1159 0 
L 581 0 
z
" transform="scale(0.015625)"/>
       <path id="DejaVuSans-440" d="M 1159 525 
L 1159 -1331 
L 581 -1331 
L 581 3500 
L 1159 3500 
L 1159 2969 
Q 1341 3281 1617 3432 
Q 1894 3584 2278 3584 
Q 2916 3584 3314 3078 
Q 3713 2572 3713 1747 
Q 3713 922 3314 415 
Q 2916 -91 2278 -91 
Q 1894 -91 1617 61 
Q 1341 213 1159 525 
z
M 3116 1747 
Q 3116 2381 2855 2742 
Q 2594 3103 2138 3103 
Q 1681 3103 1420 2742 
Q 1159 2381 1159 1747 
Q 1159 1113 1420 752 
Q 1681 391 2138 391 
Q 2594 391 2855 752 
Q 3116 1113 3116 1747 
z
" transform="scale(0.015625)"/>
       <path id="DejaVuSans-430" d="M 2194 1759 
Q 1497 1759 1228 1600 
Q 959 1441 959 1056 
Q 959 750 1161 570 
Q 1363 391 1709 391 
Q 2188 391 2477 730 
Q 2766 1069 2766 1631 
L 2766 1759 
L 2194 1759 
z
M 3341 1997 
L 3341 0 
L 2766 0 
L 2766 531 
Q 2569 213 2275 61 
Q 1981 -91 1556 -91 
Q 1019 -91 701 211 
Q 384 513 384 1019 
Q 384 1609 779 1909 
Q 1175 2209 1959 2209 
L 2766 2209 
L 2766 2266 
Q 2766 2663 2505 2880 
Q 2244 3097 1772 3097 
Q 1472 3097 1187 3025 
Q 903 2953 641 2809 
L 641 3341 
Q 956 3463 1253 3523 
Q 1550 3584 1831 3584 
Q 2591 3584 2966 3190 
Q 3341 2797 3341 1997 
z
" transform="scale(0.015625)"/>
       <path id="DejaVuSans-434" d="M 1384 459 
L 3053 459 
L 3053 3041 
L 1844 3041 
L 1844 2603 
Q 1844 1316 1475 628 
L 1384 459 
z
M 550 459 
Q 834 584 959 850 
Q 1266 1509 1266 2838 
L 1266 3500 
L 3631 3500 
L 3631 459 
L 4091 459 
L 4091 -884 
L 3631 -884 
L 3631 0 
L 794 0 
L 794 -884 
L 334 -884 
L 334 459 
L 550 459 
z
" transform="scale(0.015625)"/>
      </defs>
      <use xlink:href="#DejaVuSans-3a6" transform="translate(0 0.09375)"/>
      <use xlink:href="#DejaVuSans-2c" transform="translate(78.710938 0.09375)"/>
      <use xlink:href="#DejaVuSans-20" transform="translate(110.498047 0.09375)"/>
      <use xlink:href="#DejaVuSans-433" transform="translate(142.285156 0.09375)"/>
      <use xlink:href="#DejaVuSans-440" transform="translate(194.824219 0.09375)"/>
      <use xlink:href="#DejaVuSans-430" transform="translate(258.300781 0.09375)"/>
      <use xlink:href="#DejaVuSans-434" transform="translate(319.580078 0.09375)"/>
     </g>
    </g>
   </g>
   <g id="matplotlib.axis_2">
    <g id="ytick_1">
     <g id="line2d_15">
      <path d="M 184.32 343.423505 
L 1327.104 343.423505 
" clip-path="url(#p035a982e75)" style="fill: none; stroke: #b0b0b0; stroke-width: 0.8; stroke-linecap: square"/>
     </g>
     <g id="line2d_16">
      <defs>
       <path id="m85e9ee1941" d="M 0 0 
L -3.5 0 
" style="stroke: #000000; stroke-width: 0.8"/>
      </defs>
      <g>
       <use xlink:href="#m85e9ee1941" x="184.32" y="343.423505" style="stroke: #000000; stroke-width: 0.8"/>
      </g>
     </g>
     <g id="text_9">
      <!-- 0.00 -->
      <g transform="translate(155.054375 347.222724) scale(0.1 -0.1)">
       <defs>
        <path id="DejaVuSans-2e" d="M 684 794 
L 1344 794 
L 1344 0 
L 684 0 
L 684 794 
z
" transform="scale(0.015625)"/>
       </defs>
       <use xlink:href="#DejaVuSans-30"/>
       <use xlink:href="#DejaVuSans-2e" x="63.623047"/>
       <use xlink:href="#DejaVuSans-30" x="95.410156"/>
       <use xlink:href="#DejaVuSans-30" x="159.033203"/>
      </g>
     </g>
    </g>
    <g id="ytick_2">
     <g id="line2d_17">
      <path d="M 184.32 307.986986 
L 1327.104 307.986986 
" clip-path="url(#p035a982e75)" style="fill: none; stroke: #b0b0b0; stroke-width: 0.8; stroke-linecap: square"/>
     </g>
     <g id="line2d_18">
      <g>
       <use xlink:href="#m85e9ee1941" x="184.32" y="307.986986" style="stroke: #000000; stroke-width: 0.8"/>
      </g>
     </g>
     <g id="text_10">
      <!-- 0.25 -->
      <g transform="translate(155.054375 311.786204) scale(0.1 -0.1)">
       <defs>
        <path id="DejaVuSans-35" d="M 691 4666 
L 3169 4666 
L 3169 4134 
L 1269 4134 
L 1269 2991 
Q 1406 3038 1543 3061 
Q 1681 3084 1819 3084 
Q 2600 3084 3056 2656 
Q 3513 2228 3513 1497 
Q 3513 744 3044 326 
Q 2575 -91 1722 -91 
Q 1428 -91 1123 -41 
Q 819 9 494 109 
L 494 744 
Q 775 591 1075 516 
Q 1375 441 1709 441 
Q 2250 441 2565 725 
Q 2881 1009 2881 1497 
Q 2881 1984 2565 2268 
Q 2250 2553 1709 2553 
Q 1456 2553 1204 2497 
Q 953 2441 691 2322 
L 691 4666 
z
" transform="scale(0.015625)"/>
       </defs>
       <use xlink:href="#DejaVuSans-30"/>
       <use xlink:href="#DejaVuSans-2e" x="63.623047"/>
       <use xlink:href="#DejaVuSans-32" x="95.410156"/>
       <use xlink:href="#DejaVuSans-35" x="159.033203"/>
      </g>
     </g>
    </g>
    <g id="ytick_3">
     <g id="line2d_19">
      <path d="M 184.32 272.550466 
L 1327.104 272.550466 
" clip-path="url(#p035a982e75)" style="fill: none; stroke: #b0b0b0; stroke-width: 0.8; stroke-linecap: square"/>
     </g>
     <g id="line2d_20">
      <g>
       <use xlink:href="#m85e9ee1941" x="184.32" y="272.550466" style="stroke: #000000; stroke-width: 0.8"/>
      </g>
     </g>
     <g id="text_11">
      <!-- 0.50 -->
      <g transform="translate(155.054375 276.349685) scale(0.1 -0.1)">
       <use xlink:href="#DejaVuSans-30"/>
       <use xlink:href="#DejaVuSans-2e" x="63.623047"/>
       <use xlink:href="#DejaVuSans-35" x="95.410156"/>
       <use xlink:href="#DejaVuSans-30" x="159.033203"/>
      </g>
     </g>
    </g>
    <g id="ytick_4">
     <g id="line2d_21">
      <path d="M 184.32 237.113946 
L 1327.104 237.113946 
" clip-path="url(#p035a982e75)" style="fill: none; stroke: #b0b0b0; stroke-width: 0.8; stroke-linecap: square"/>
     </g>
     <g id="line2d_22">
      <g>
       <use xlink:href="#m85e9ee1941" x="184.32" y="237.113946" style="stroke: #000000; stroke-width: 0.8"/>
      </g>
     </g>
     <g id="text_12">
      <!-- 0.75 -->
      <g transform="translate(155.054375 240.913165) scale(0.1 -0.1)">
       <defs>
        <path id="DejaVuSans-37" d="M 525 4666 
L 3525 4666 
L 3525 4397 
L 1831 0 
L 1172 0 
L 2766 4134 
L 525 4134 
L 525 4666 
z
" transform="scale(0.015625)"/>
       </defs>
       <use xlink:href="#DejaVuSans-30"/>
       <use xlink:href="#DejaVuSans-2e" x="63.623047"/>
       <use xlink:href="#DejaVuSans-37" x="95.410156"/>
       <use xlink:href="#DejaVuSans-35" x="159.033203"/>
      </g>
     </g>
    </g>
    <g id="ytick_5">
     <g id="line2d_23">
      <path d="M 184.32 201.677426 
L 1327.104 201.677426 
" clip-path="url(#p035a982e75)" style="fill: none; stroke: #b0b0b0; stroke-width: 0.8; stroke-linecap: square"/>
     </g>
     <g id="line2d_24">
      <g>
       <use xlink:href="#m85e9ee1941" x="184.32" y="201.677426" style="stroke: #000000; stroke-width: 0.8"/>
      </g>
     </g>
     <g id="text_13">
      <!-- 1.00 -->
      <g transform="translate(155.054375 205.476645) scale(0.1 -0.1)">
       <use xlink:href="#DejaVuSans-31"/>
       <use xlink:href="#DejaVuSans-2e" x="63.623047"/>
       <use xlink:href="#DejaVuSans-30" x="95.410156"/>
       <use xlink:href="#DejaVuSans-30" x="159.033203"/>
      </g>
     </g>
    </g>
    <g id="ytick_6">
     <g id="line2d_25">
      <path d="M 184.32 166.240906 
L 1327.104 166.240906 
" clip-path="url(#p035a982e75)" style="fill: none; stroke: #b0b0b0; stroke-width: 0.8; stroke-linecap: square"/>
     </g>
     <g id="line2d_26">
      <g>
       <use xlink:href="#m85e9ee1941" x="184.32" y="166.240906" style="stroke: #000000; stroke-width: 0.8"/>
      </g>
     </g>
     <g id="text_14">
      <!-- 1.25 -->
      <g transform="translate(155.054375 170.040125) scale(0.1 -0.1)">
       <use xlink:href="#DejaVuSans-31"/>
       <use xlink:href="#DejaVuSans-2e" x="63.623047"/>
       <use xlink:href="#DejaVuSans-32" x="95.410156"/>
       <use xlink:href="#DejaVuSans-35" x="159.033203"/>
      </g>
     </g>
    </g>
    <g id="ytick_7">
     <g id="line2d_27">
      <path d="M 184.32 130.804387 
L 1327.104 130.804387 
" clip-path="url(#p035a982e75)" style="fill: none; stroke: #b0b0b0; stroke-width: 0.8; stroke-linecap: square"/>
     </g>
     <g id="line2d_28">
      <g>
       <use xlink:href="#m85e9ee1941" x="184.32" y="130.804387" style="stroke: #000000; stroke-width: 0.8"/>
      </g>
     </g>
     <g id="text_15">
      <!-- 1.50 -->
      <g transform="translate(155.054375 134.603605) scale(0.1 -0.1)">
       <use xlink:href="#DejaVuSans-31"/>
       <use xlink:href="#DejaVuSans-2e" x="63.623047"/>
       <use xlink:href="#DejaVuSans-35" x="95.410156"/>
       <use xlink:href="#DejaVuSans-30" x="159.033203"/>
      </g>
     </g>
    </g>
    <g id="ytick_8">
     <g id="line2d_29">
      <path d="M 184.32 95.367867 
L 1327.104 95.367867 
" clip-path="url(#p035a982e75)" style="fill: none; stroke: #b0b0b0; stroke-width: 0.8; stroke-linecap: square"/>
     </g>
     <g id="line2d_30">
      <g>
       <use xlink:href="#m85e9ee1941" x="184.32" y="95.367867" style="stroke: #000000; stroke-width: 0.8"/>
      </g>
     </g>
     <g id="text_16">
      <!-- 1.75 -->
      <g transform="translate(155.054375 99.167086) scale(0.1 -0.1)">
       <use xlink:href="#DejaVuSans-31"/>
       <use xlink:href="#DejaVuSans-2e" x="63.623047"/>
       <use xlink:href="#DejaVuSans-37" x="95.410156"/>
       <use xlink:href="#DejaVuSans-35" x="159.033203"/>
      </g>
     </g>
    </g>
   </g>
   <g id="line2d_31">
    <path d="M 236.264727 343.423505 
L 244.994934 342.186506 
L 253.72514 340.949318 
L 262.455346 339.711754 
L 271.185552 338.473623 
L 279.915759 337.234738 
L 288.645965 335.994908 
L 297.376171 334.753944 
L 306.106377 333.511654 
L 314.836584 332.267847 
L 323.56679 331.02233 
L 332.296996 329.77491 
L 341.027202 328.525392 
L 349.757409 327.27358 
L 358.487615 326.019275 
L 367.217821 324.76228 
L 375.948028 323.502393 
L 384.678234 322.239412 
L 393.40844 320.973132 
L 402.138646 319.703347 
L 410.868853 318.429847 
L 419.599059 317.152423 
L 428.329265 315.870859 
L 437.059471 314.58494 
L 445.789678 313.294446 
L 454.519884 311.999156 
L 463.25009 310.698845 
L 471.980296 309.393283 
L 480.710503 308.082239 
L 489.440709 306.765477 
L 498.170915 305.442758 
L 506.901121 304.113839 
L 515.631328 302.778471 
L 524.361534 301.436404 
L 533.09174 300.08738 
L 541.821947 298.731138 
L 550.552153 297.367412 
L 559.282359 295.995931 
L 568.012565 294.616416 
L 576.742772 293.228586 
L 585.472978 291.832152 
L 594.203184 290.426818 
L 602.93339 289.012284 
L 611.663597 287.58824 
L 620.393803 286.154372 
L 629.124009 284.710357 
L 637.854215 283.255865 
L 646.584422 281.790556 
L 655.314628 280.314085 
L 664.044834 278.826096 
L 672.77504 277.326223 
L 681.505247 275.814094 
L 690.235453 274.289323 
L 698.965659 272.751517 
L 707.695866 271.200271 
L 716.426072 269.635167 
L 725.156278 268.055778 
L 733.886484 266.461664 
L 742.616691 264.852371 
L 751.346897 263.227432 
L 760.077103 261.586368 
L 768.807309 259.928684 
L 777.537516 258.253869 
L 786.267722 256.561396 
L 794.997928 254.850725 
L 803.728134 253.121294 
L 812.458341 251.372525 
L 821.188547 249.603822 
L 829.918753 247.814568 
L 838.64896 246.004124 
L 847.379166 244.171832 
L 856.109372 242.31701 
L 864.839578 240.438951 
L 873.569785 238.536924 
L 882.299991 236.610173 
L 891.030197 234.657913 
L 899.760403 232.679331 
L 908.49061 230.673583 
L 917.220816 228.639794 
L 925.951022 226.577055 
L 934.681228 224.484423 
L 943.411435 222.360917 
L 952.141641 220.205519 
L 960.871847 218.017168 
L 969.602053 215.794763 
L 978.33226 213.537154 
L 987.062466 211.243148 
L 995.792672 208.911499 
L 1004.522879 206.540908 
L 1013.253085 204.130021 
L 1021.983291 201.677426 
L 1030.713497 199.181647 
L 1039.443704 196.641144 
L 1048.17391 194.054304 
L 1056.904116 191.419445 
L 1065.634322 188.734804 
L 1074.364529 185.998536 
L 1083.094735 183.208708 
L 1091.824941 180.363294 
L 1100.555147 177.46017 
L 1109.285354 174.497106 
L 1118.01556 171.471761 
L 1126.745766 168.381675 
L 1135.475972 165.224261 
L 1144.206179 161.996798 
L 1152.936385 158.696419 
L 1161.666591 155.320105 
L 1170.396798 151.864674 
L 1179.127004 148.326765 
L 1187.85721 144.702832 
L 1196.587416 140.989125 
L 1205.317623 137.18168 
L 1214.047829 133.276301 
L 1222.778035 129.26854 
L 1231.508241 125.153684 
L 1240.238448 120.926729 
L 1248.968654 116.582361 
L 1257.69886 112.114927 
L 1266.429066 107.518414 
L 1275.159273 102.786415 
" clip-path="url(#p035a982e75)" style="fill: none; stroke: #1f77b4; stroke-width: 3; stroke-linecap: square"/>
   </g>
   <g id="line2d_32">
    <path d="M 236.264727 343.423505 
L 244.994934 342.186538 
L 253.72514 340.94957 
L 262.455346 339.712602 
L 271.185552 338.475634 
L 279.915759 337.238666 
L 288.645965 336.001698 
L 297.376171 334.76473 
L 306.106377 333.527762 
L 314.836584 332.290794 
L 323.56679 331.053827 
L 332.296996 329.816859 
L 341.027202 328.579891 
L 349.757409 327.342923 
L 358.487615 326.105955 
L 367.217821 324.868987 
L 375.948028 323.632019 
L 384.678234 322.395051 
L 393.40844 321.158083 
L 402.138646 319.921116 
L 410.868853 318.684148 
L 419.599059 317.44718 
L 428.329265 316.210212 
L 437.059471 314.973244 
L 445.789678 313.736276 
L 454.519884 312.499308 
L 463.25009 311.26234 
L 471.980296 310.025372 
L 480.710503 308.788404 
L 489.440709 307.551437 
L 498.170915 306.314469 
L 506.901121 305.077501 
L 515.631328 303.840533 
L 524.361534 302.603565 
L 533.09174 301.366597 
L 541.821947 300.129629 
L 550.552153 298.892661 
L 559.282359 297.655693 
L 568.012565 296.418726 
L 576.742772 295.181758 
L 585.472978 293.94479 
L 594.203184 292.707822 
L 602.93339 291.470854 
L 611.663597 290.233886 
L 620.393803 288.996918 
L 629.124009 287.75995 
L 637.854215 286.522982 
L 646.584422 285.286015 
L 655.314628 284.049047 
L 664.044834 282.812079 
L 672.77504 281.575111 
L 681.505247 280.338143 
L 690.235453 279.101175 
L 698.965659 277.864207 
L 707.695866 276.627239 
L 716.426072 275.390271 
L 725.156278 274.153304 
L 733.886484 272.916336 
L 742.616691 271.679368 
L 751.346897 270.4424 
L 760.077103 269.205432 
L 768.807309 267.968464 
L 777.537516 266.731496 
L 786.267722 265.494528 
L 794.997928 264.25756 
L 803.728134 263.020592 
L 812.458341 261.783625 
L 821.188547 260.546657 
L 829.918753 259.309689 
L 838.64896 258.072721 
L 847.379166 256.835753 
L 856.109372 255.598785 
L 864.839578 254.361817 
L 873.569785 253.124849 
L 882.299991 251.887881 
L 891.030197 250.650914 
L 899.760403 249.413946 
L 908.49061 248.176978 
L 917.220816 246.94001 
L 925.951022 245.703042 
L 934.681228 244.466074 
L 943.411435 243.229106 
L 952.141641 241.992138 
L 960.871847 240.75517 
L 969.602053 239.518203 
L 978.33226 238.281235 
L 987.062466 237.044267 
L 995.792672 235.807299 
L 1004.522879 234.570331 
L 1013.253085 233.333363 
L 1021.983291 232.096395 
L 1030.713497 230.859427 
L 1039.443704 229.622459 
L 1048.17391 228.385492 
L 1056.904116 227.148524 
L 1065.634322 225.911556 
L 1074.364529 224.674588 
L 1083.094735 223.43762 
L 1091.824941 222.200652 
L 1100.555147 220.963684 
L 1109.285354 219.726716 
L 1118.01556 218.489748 
L 1126.745766 217.252781 
L 1135.475972 216.015813 
L 1144.206179 214.778845 
L 1152.936385 213.541877 
L 1161.666591 212.304909 
L 1170.396798 211.067941 
L 1179.127004 209.830973 
L 1187.85721 208.594005 
L 1196.587416 207.357037 
L 1205.317623 206.120069 
L 1214.047829 204.883102 
L 1222.778035 203.646134 
L 1231.508241 202.409166 
L 1240.238448 201.172198 
L 1248.968654 199.93523 
L 1257.69886 198.698262 
L 1266.429066 197.461294 
L 1275.159273 196.224326 
" clip-path="url(#p035a982e75)" style="fill: none; stroke: #ff7f0e; stroke-width: 3; stroke-linecap: square"/>
   </g>
   <g id="patch_3">
    <path d="M 184.32 355.45536 
L 184.32 90.75456 
" style="fill: none; stroke: #000000; stroke-width: 0.8; stroke-linejoin: miter; stroke-linecap: square"/>
   </g>
   <g id="patch_4">
    <path d="M 1327.104 355.45536 
L 1327.104 90.75456 
" style="fill: none; stroke: #000000; stroke-width: 0.8; stroke-linejoin: miter; stroke-linecap: square"/>
   </g>
   <g id="patch_5">
    <path d="M 184.32 355.45536 
L 1327.104 355.45536 
" style="fill: none; stroke: #000000; stroke-width: 0.8; stroke-linejoin: miter; stroke-linecap: square"/>
   </g>
   <g id="patch_6">
    <path d="M 184.32 90.75456 
L 1327.104 90.75456 
" style="fill: none; stroke: #000000; stroke-width: 0.8; stroke-linejoin: miter; stroke-linecap: square"/>
   </g>
   <g id="text_17">
    <!-- Линейная аппроксимация классических параметров Родрига -->
    <g transform="translate(560.296687 84.75456) scale(0.12 -0.12)">
     <defs>
      <path id="DejaVuSans-41b" d="M 263 0 
L 263 531 
Q 941 678 1134 1191 
Q 1406 1997 1406 3872 
L 1406 4666 
L 4181 4666 
L 4181 0 
L 3550 0 
L 3550 4134 
L 2034 4134 
L 2034 3559 
Q 2034 1791 1716 966 
Q 1409 175 263 0 
z
" transform="scale(0.015625)"/>
      <path id="DejaVuSans-438" d="M 3578 3500 
L 3578 0 
L 3006 0 
L 3006 2809 
L 1319 0 
L 581 0 
L 581 3500 
L 1153 3500 
L 1153 697 
L 2838 3500 
L 3578 3500 
z
" transform="scale(0.015625)"/>
      <path id="DejaVuSans-43d" d="M 581 3500 
L 1159 3500 
L 1159 2072 
L 3025 2072 
L 3025 3500 
L 3603 3500 
L 3603 0 
L 3025 0 
L 3025 1613 
L 1159 1613 
L 1159 0 
L 581 0 
L 581 3500 
z
" transform="scale(0.015625)"/>
      <path id="DejaVuSans-435" d="M 3597 1894 
L 3597 1613 
L 953 1613 
Q 991 1019 1311 708 
Q 1631 397 2203 397 
Q 2534 397 2845 478 
Q 3156 559 3463 722 
L 3463 178 
Q 3153 47 2828 -22 
Q 2503 -91 2169 -91 
Q 1331 -91 842 396 
Q 353 884 353 1716 
Q 353 2575 817 3079 
Q 1281 3584 2069 3584 
Q 2775 3584 3186 3129 
Q 3597 2675 3597 1894 
z
M 3022 2063 
Q 3016 2534 2758 2815 
Q 2500 3097 2075 3097 
Q 1594 3097 1305 2825 
Q 1016 2553 972 2059 
L 3022 2063 
z
" transform="scale(0.015625)"/>
      <path id="DejaVuSans-439" d="M 3578 3500 
L 3578 0 
L 3006 0 
L 3006 2809 
L 1319 0 
L 581 0 
L 581 3500 
L 1153 3500 
L 1153 697 
L 2838 3500 
L 3578 3500 
z
M 1102 4833 
L 1471 4833 
Q 1505 4599 1656 4481 
Q 1808 4364 2080 4364 
Q 2349 4364 2499 4480 
Q 2649 4596 2689 4833 
L 3058 4833 
Q 3027 4386 2780 4161 
Q 2533 3936 2080 3936 
Q 1627 3936 1380 4161 
Q 1133 4386 1102 4833 
z
" transform="scale(0.015625)"/>
      <path id="DejaVuSans-44f" d="M 1181 2491 
Q 1181 2231 1381 2084 
Q 1581 1938 1953 1938 
L 2728 1938 
L 2728 3041 
L 1953 3041 
Q 1581 3041 1381 2897 
Q 1181 2753 1181 2491 
z
M 363 0 
L 1431 1534 
Q 1069 1616 828 1830 
Q 588 2044 588 2491 
Q 588 2997 923 3248 
Q 1259 3500 1938 3500 
L 3306 3500 
L 3306 0 
L 2728 0 
L 2728 1478 
L 2013 1478 
L 981 0 
L 363 0 
z
" transform="scale(0.015625)"/>
      <path id="DejaVuSans-43f" d="M 3603 3500 
L 3603 0 
L 3025 0 
L 3025 3041 
L 1159 3041 
L 1159 0 
L 581 0 
L 581 3500 
L 3603 3500 
z
" transform="scale(0.015625)"/>
      <path id="DejaVuSans-43e" d="M 1959 3097 
Q 1497 3097 1228 2736 
Q 959 2375 959 1747 
Q 959 1119 1226 758 
Q 1494 397 1959 397 
Q 2419 397 2687 759 
Q 2956 1122 2956 1747 
Q 2956 2369 2687 2733 
Q 2419 3097 1959 3097 
z
M 1959 3584 
Q 2709 3584 3137 3096 
Q 3566 2609 3566 1747 
Q 3566 888 3137 398 
Q 2709 -91 1959 -91 
Q 1206 -91 779 398 
Q 353 888 353 1747 
Q 353 2609 779 3096 
Q 1206 3584 1959 3584 
z
" transform="scale(0.015625)"/>
      <path id="DejaVuSans-43a" d="M 581 3500 
L 1153 3500 
L 1153 1856 
L 2775 3500 
L 3481 3500 
L 2144 2147 
L 3653 0 
L 3009 0 
L 1769 1766 
L 1153 1141 
L 1153 0 
L 581 0 
L 581 3500 
z
" transform="scale(0.015625)"/>
      <path id="DejaVuSans-441" d="M 3122 3366 
L 3122 2828 
Q 2878 2963 2633 3030 
Q 2388 3097 2138 3097 
Q 1578 3097 1268 2742 
Q 959 2388 959 1747 
Q 959 1106 1268 751 
Q 1578 397 2138 397 
Q 2388 397 2633 464 
Q 2878 531 3122 666 
L 3122 134 
Q 2881 22 2623 -34 
Q 2366 -91 2075 -91 
Q 1284 -91 818 406 
Q 353 903 353 1747 
Q 353 2603 823 3093 
Q 1294 3584 2113 3584 
Q 2378 3584 2631 3529 
Q 2884 3475 3122 3366 
z
" transform="scale(0.015625)"/>
      <path id="DejaVuSans-43c" d="M 581 3500 
L 1422 3500 
L 2416 1156 
L 3413 3500 
L 4247 3500 
L 4247 0 
L 3669 0 
L 3669 2950 
L 2703 672 
L 2128 672 
L 1159 2950 
L 1159 0 
L 581 0 
L 581 3500 
z
" transform="scale(0.015625)"/>
      <path id="DejaVuSans-446" d="M 3603 0 
L 581 0 
L 581 3500 
L 1159 3500 
L 1159 459 
L 3025 459 
L 3025 3500 
L 3603 3500 
L 3603 459 
L 4063 459 
L 4063 -884 
L 3603 -884 
L 3603 0 
z
" transform="scale(0.015625)"/>
      <path id="DejaVuSans-43b" d="M 238 0 
L 238 478 
Q 806 566 981 959 
Q 1194 1513 1194 2928 
L 1194 3500 
L 3559 3500 
L 3559 0 
L 2984 0 
L 2984 3041 
L 1769 3041 
L 1769 2694 
Q 1769 1344 1494 738 
Q 1200 91 238 0 
z
" transform="scale(0.015625)"/>
      <path id="DejaVuSans-447" d="M 2625 0 
L 2625 1472 
L 1553 1472 
Q 1075 1472 756 1769 
Q 469 2038 469 2613 
L 469 3500 
L 1044 3500 
L 1044 2666 
Q 1044 2300 1206 2116 
Q 1372 1931 1697 1931 
L 2625 1931 
L 2625 3500 
L 3200 3500 
L 3200 0 
L 2625 0 
z
" transform="scale(0.015625)"/>
      <path id="DejaVuSans-445" d="M 3513 3500 
L 2247 1797 
L 3578 0 
L 2900 0 
L 1881 1375 
L 863 0 
L 184 0 
L 1544 1831 
L 300 3500 
L 978 3500 
L 1906 2253 
L 2834 3500 
L 3513 3500 
z
" transform="scale(0.015625)"/>
      <path id="DejaVuSans-442" d="M 188 3500 
L 3541 3500 
L 3541 3041 
L 2147 3041 
L 2147 0 
L 1581 0 
L 1581 3041 
L 188 3041 
L 188 3500 
z
" transform="scale(0.015625)"/>
      <path id="DejaVuSans-432" d="M 1156 1613 
L 1156 459 
L 1975 459 
Q 2369 459 2575 607 
Q 2781 756 2781 1038 
Q 2781 1319 2575 1466 
Q 2369 1613 1975 1613 
L 1156 1613 
z
M 1156 3041 
L 1156 2072 
L 1913 2072 
Q 2238 2072 2444 2201 
Q 2650 2331 2650 2563 
Q 2650 2794 2444 2917 
Q 2238 3041 1913 3041 
L 1156 3041 
z
M 581 3500 
L 1950 3500 
Q 2566 3500 2897 3275 
Q 3228 3050 3228 2634 
Q 3228 2313 3059 2123 
Q 2891 1934 2559 1888 
Q 2956 1813 3175 1575 
Q 3394 1338 3394 981 
Q 3394 513 3033 256 
Q 2672 0 2003 0 
L 581 0 
L 581 3500 
z
" transform="scale(0.015625)"/>
      <path id="DejaVuSans-420" d="M 1259 4147 
L 1259 2394 
L 2053 2394 
Q 2494 2394 2734 2622 
Q 2975 2850 2975 3272 
Q 2975 3691 2734 3919 
Q 2494 4147 2053 4147 
L 1259 4147 
z
M 628 4666 
L 2053 4666 
Q 2838 4666 3239 4311 
Q 3641 3956 3641 3272 
Q 3641 2581 3239 2228 
Q 2838 1875 2053 1875 
L 1259 1875 
L 1259 0 
L 628 0 
L 628 4666 
z
" transform="scale(0.015625)"/>
     </defs>
     <use xlink:href="#DejaVuSans-41b"/>
     <use xlink:href="#DejaVuSans-438" x="75.195312"/>
     <use xlink:href="#DejaVuSans-43d" x="140.185547"/>
     <use xlink:href="#DejaVuSans-435" x="205.566406"/>
     <use xlink:href="#DejaVuSans-439" x="267.089844"/>
     <use xlink:href="#DejaVuSans-43d" x="332.080078"/>
     <use xlink:href="#DejaVuSans-430" x="397.460938"/>
     <use xlink:href="#DejaVuSans-44f" x="458.740234"/>
     <use xlink:href="#DejaVuSans-20" x="518.896484"/>
     <use xlink:href="#DejaVuSans-430" x="550.683594"/>
     <use xlink:href="#DejaVuSans-43f" x="611.962891"/>
     <use xlink:href="#DejaVuSans-43f" x="677.34375"/>
     <use xlink:href="#DejaVuSans-440" x="742.724609"/>
     <use xlink:href="#DejaVuSans-43e" x="806.201172"/>
     <use xlink:href="#DejaVuSans-43a" x="867.382812"/>
     <use xlink:href="#DejaVuSans-441" x="927.783203"/>
     <use xlink:href="#DejaVuSans-438" x="982.763672"/>
     <use xlink:href="#DejaVuSans-43c" x="1047.753906"/>
     <use xlink:href="#DejaVuSans-430" x="1123.193359"/>
     <use xlink:href="#DejaVuSans-446" x="1184.472656"/>
     <use xlink:href="#DejaVuSans-438" x="1252.539062"/>
     <use xlink:href="#DejaVuSans-44f" x="1317.529297"/>
     <use xlink:href="#DejaVuSans-20" x="1377.685547"/>
     <use xlink:href="#DejaVuSans-43a" x="1409.472656"/>
     <use xlink:href="#DejaVuSans-43b" x="1469.873047"/>
     <use xlink:href="#DejaVuSans-430" x="1533.789062"/>
     <use xlink:href="#DejaVuSans-441" x="1595.068359"/>
     <use xlink:href="#DejaVuSans-441" x="1650.048828"/>
     <use xlink:href="#DejaVuSans-438" x="1705.029297"/>
     <use xlink:href="#DejaVuSans-447" x="1770.019531"/>
     <use xlink:href="#DejaVuSans-435" x="1829.101562"/>
     <use xlink:href="#DejaVuSans-441" x="1890.625"/>
     <use xlink:href="#DejaVuSans-43a" x="1945.605469"/>
     <use xlink:href="#DejaVuSans-438" x="2006.005859"/>
     <use xlink:href="#DejaVuSans-445" x="2070.996094"/>
     <use xlink:href="#DejaVuSans-20" x="2130.175781"/>
     <use xlink:href="#DejaVuSans-43f" x="2161.962891"/>
     <use xlink:href="#DejaVuSans-430" x="2227.34375"/>
     <use xlink:href="#DejaVuSans-440" x="2288.623047"/>
     <use xlink:href="#DejaVuSans-430" x="2352.099609"/>
     <use xlink:href="#DejaVuSans-43c" x="2413.378906"/>
     <use xlink:href="#DejaVuSans-435" x="2488.818359"/>
     <use xlink:href="#DejaVuSans-442" x="2550.341797"/>
     <use xlink:href="#DejaVuSans-440" x="2608.59375"/>
     <use xlink:href="#DejaVuSans-43e" x="2672.070312"/>
     <use xlink:href="#DejaVuSans-432" x="2733.251953"/>
     <use xlink:href="#DejaVuSans-20" x="2792.1875"/>
     <use xlink:href="#DejaVuSans-420" x="2823.974609"/>
     <use xlink:href="#DejaVuSans-43e" x="2884.277344"/>
     <use xlink:href="#DejaVuSans-434" x="2945.458984"/>
     <use xlink:href="#DejaVuSans-440" x="3014.599609"/>
     <use xlink:href="#DejaVuSans-438" x="3078.076172"/>
     <use xlink:href="#DejaVuSans-433" x="3143.066406"/>
     <use xlink:href="#DejaVuSans-430" x="3195.605469"/>
    </g>
   </g>
   <g id="legend_1">
    <g id="patch_7">
     <path d="M 194.12 166.07456 
L 266.08 166.07456 
Q 268.88 166.07456 268.88 163.27456 
L 268.88 100.55456 
Q 268.88 97.75456 266.08 97.75456 
L 194.12 97.75456 
Q 191.32 97.75456 191.32 100.55456 
L 191.32 163.27456 
Q 191.32 166.07456 194.12 166.07456 
z
" style="fill: #ffffff; opacity: 0.8; stroke: #cccccc; stroke-linejoin: miter"/>
    </g>
    <g id="line2d_33">
     <path d="M 196.92 114.83456 
L 210.92 114.83456 
L 224.92 114.83456 
" style="fill: none; stroke: #1f77b4; stroke-width: 3; stroke-linecap: square"/>
    </g>
    <g id="text_18">
     <!-- $\text{tg}\dfrac{\Phi}{2}$ -->
     <g transform="translate(236.12 119.73456) scale(0.14 -0.14)">
      <defs>
       <path id="DejaVuSans-74" d="M 1172 4494 
L 1172 3500 
L 2356 3500 
L 2356 3053 
L 1172 3053 
L 1172 1153 
Q 1172 725 1289 603 
Q 1406 481 1766 481 
L 2356 481 
L 2356 0 
L 1766 0 
Q 1100 0 847 248 
Q 594 497 594 1153 
L 594 3053 
L 172 3053 
L 172 3500 
L 594 3500 
L 594 4494 
L 1172 4494 
z
" transform="scale(0.015625)"/>
       <path id="DejaVuSans-67" d="M 2906 1791 
Q 2906 2416 2648 2759 
Q 2391 3103 1925 3103 
Q 1463 3103 1205 2759 
Q 947 2416 947 1791 
Q 947 1169 1205 825 
Q 1463 481 1925 481 
Q 2391 481 2648 825 
Q 2906 1169 2906 1791 
z
M 3481 434 
Q 3481 -459 3084 -895 
Q 2688 -1331 1869 -1331 
Q 1566 -1331 1297 -1286 
Q 1028 -1241 775 -1147 
L 775 -588 
Q 1028 -725 1275 -790 
Q 1522 -856 1778 -856 
Q 2344 -856 2625 -561 
Q 2906 -266 2906 331 
L 2906 616 
Q 2728 306 2450 153 
Q 2172 0 1784 0 
Q 1141 0 747 490 
Q 353 981 353 1791 
Q 353 2603 747 3093 
Q 1141 3584 1784 3584 
Q 2172 3584 2450 3431 
Q 2728 3278 2906 2969 
L 2906 3500 
L 3481 3500 
L 3481 434 
z
" transform="scale(0.015625)"/>
      </defs>
      <use xlink:href="#DejaVuSans-74" transform="translate(0 0.296875)"/>
      <use xlink:href="#DejaVuSans-67" transform="translate(39.208984 0.296875)"/>
      <use xlink:href="#DejaVuSans-3a6" transform="translate(102.685547 44.09375)"/>
      <use xlink:href="#DejaVuSans-32" transform="translate(110.685547 -61.375)"/>
      <path d="M 102.685547 19.09375 
L 102.685547 25.34375 
L 181.396484 25.34375 
L 181.396484 19.09375 
L 102.685547 19.09375 
z
"/>
     </g>
    </g>
    <g id="line2d_34">
     <path d="M 196.92 146.89456 
L 210.92 146.89456 
L 224.92 146.89456 
" style="fill: none; stroke: #ff7f0e; stroke-width: 3; stroke-linecap: square"/>
    </g>
    <g id="text_19">
     <!-- $\dfrac{\Phi}{2}$ -->
     <g transform="translate(236.12 151.79456) scale(0.14 -0.14)">
      <use xlink:href="#DejaVuSans-3a6" transform="translate(0 44.09375)"/>
      <use xlink:href="#DejaVuSans-32" transform="translate(8 -61.375)"/>
      <path d="M 0 19.09375 
L 0 25.34375 
L 78.710938 25.34375 
L 78.710938 19.09375 
L 0 19.09375 
z
"/>
     </g>
    </g>
   </g>
  </g>
  <g id="axes_2">
   <g id="patch_8">
    <path d="M 184.32 673.09632 
L 1327.104 673.09632 
L 1327.104 408.39552 
L 184.32 408.39552 
z
" style="fill: #ffffff"/>
   </g>
   <g id="matplotlib.axis_3">
    <g id="xtick_8">
     <g id="line2d_35">
      <path d="M 236.264727 673.09632 
L 236.264727 408.39552 
" clip-path="url(#pe33625fd61)" style="fill: none; stroke: #b0b0b0; stroke-width: 0.8; stroke-linecap: square"/>
     </g>
     <g id="line2d_36">
      <g>
       <use xlink:href="#m40b13b121a" x="236.264727" y="673.09632" style="stroke: #000000; stroke-width: 0.8"/>
      </g>
     </g>
     <g id="text_20">
      <!-- 0 -->
      <g transform="translate(233.083477 687.694758) scale(0.1 -0.1)">
       <use xlink:href="#DejaVuSans-30"/>
      </g>
     </g>
    </g>
    <g id="xtick_9">
     <g id="line2d_37">
      <path d="M 410.868853 673.09632 
L 410.868853 408.39552 
" clip-path="url(#pe33625fd61)" style="fill: none; stroke: #b0b0b0; stroke-width: 0.8; stroke-linecap: square"/>
     </g>
     <g id="line2d_38">
      <g>
       <use xlink:href="#m40b13b121a" x="410.868853" y="673.09632" style="stroke: #000000; stroke-width: 0.8"/>
      </g>
     </g>
     <g id="text_21">
      <!-- 20 -->
      <g transform="translate(404.506353 687.694758) scale(0.1 -0.1)">
       <use xlink:href="#DejaVuSans-32"/>
       <use xlink:href="#DejaVuSans-30" x="63.623047"/>
      </g>
     </g>
    </g>
    <g id="xtick_10">
     <g id="line2d_39">
      <path d="M 585.472978 673.09632 
L 585.472978 408.39552 
" clip-path="url(#pe33625fd61)" style="fill: none; stroke: #b0b0b0; stroke-width: 0.8; stroke-linecap: square"/>
     </g>
     <g id="line2d_40">
      <g>
       <use xlink:href="#m40b13b121a" x="585.472978" y="673.09632" style="stroke: #000000; stroke-width: 0.8"/>
      </g>
     </g>
     <g id="text_22">
      <!-- 40 -->
      <g transform="translate(579.110478 687.694758) scale(0.1 -0.1)">
       <use xlink:href="#DejaVuSans-34"/>
       <use xlink:href="#DejaVuSans-30" x="63.623047"/>
      </g>
     </g>
    </g>
    <g id="xtick_11">
     <g id="line2d_41">
      <path d="M 760.077103 673.09632 
L 760.077103 408.39552 
" clip-path="url(#pe33625fd61)" style="fill: none; stroke: #b0b0b0; stroke-width: 0.8; stroke-linecap: square"/>
     </g>
     <g id="line2d_42">
      <g>
       <use xlink:href="#m40b13b121a" x="760.077103" y="673.09632" style="stroke: #000000; stroke-width: 0.8"/>
      </g>
     </g>
     <g id="text_23">
      <!-- 60 -->
      <g transform="translate(753.714603 687.694758) scale(0.1 -0.1)">
       <use xlink:href="#DejaVuSans-36"/>
       <use xlink:href="#DejaVuSans-30" x="63.623047"/>
      </g>
     </g>
    </g>
    <g id="xtick_12">
     <g id="line2d_43">
      <path d="M 934.681228 673.09632 
L 934.681228 408.39552 
" clip-path="url(#pe33625fd61)" style="fill: none; stroke: #b0b0b0; stroke-width: 0.8; stroke-linecap: square"/>
     </g>
     <g id="line2d_44">
      <g>
       <use xlink:href="#m40b13b121a" x="934.681228" y="673.09632" style="stroke: #000000; stroke-width: 0.8"/>
      </g>
     </g>
     <g id="text_24">
      <!-- 80 -->
      <g transform="translate(928.318728 687.694758) scale(0.1 -0.1)">
       <use xlink:href="#DejaVuSans-38"/>
       <use xlink:href="#DejaVuSans-30" x="63.623047"/>
      </g>
     </g>
    </g>
    <g id="xtick_13">
     <g id="line2d_45">
      <path d="M 1109.285354 673.09632 
L 1109.285354 408.39552 
" clip-path="url(#pe33625fd61)" style="fill: none; stroke: #b0b0b0; stroke-width: 0.8; stroke-linecap: square"/>
     </g>
     <g id="line2d_46">
      <g>
       <use xlink:href="#m40b13b121a" x="1109.285354" y="673.09632" style="stroke: #000000; stroke-width: 0.8"/>
      </g>
     </g>
     <g id="text_25">
      <!-- 100 -->
      <g transform="translate(1099.741604 687.694758) scale(0.1 -0.1)">
       <use xlink:href="#DejaVuSans-31"/>
       <use xlink:href="#DejaVuSans-30" x="63.623047"/>
       <use xlink:href="#DejaVuSans-30" x="127.246094"/>
      </g>
     </g>
    </g>
    <g id="xtick_14">
     <g id="line2d_47">
      <path d="M 1283.889479 673.09632 
L 1283.889479 408.39552 
" clip-path="url(#pe33625fd61)" style="fill: none; stroke: #b0b0b0; stroke-width: 0.8; stroke-linecap: square"/>
     </g>
     <g id="line2d_48">
      <g>
       <use xlink:href="#m40b13b121a" x="1283.889479" y="673.09632" style="stroke: #000000; stroke-width: 0.8"/>
      </g>
     </g>
     <g id="text_26">
      <!-- 120 -->
      <g transform="translate(1274.345729 687.694758) scale(0.1 -0.1)">
       <use xlink:href="#DejaVuSans-31"/>
       <use xlink:href="#DejaVuSans-32" x="63.623047"/>
       <use xlink:href="#DejaVuSans-30" x="127.246094"/>
      </g>
     </g>
    </g>
    <g id="text_27">
     <!-- $\Phi$, град -->
     <g transform="translate(728.482 704.38382) scale(0.14 -0.14)">
      <use xlink:href="#DejaVuSans-3a6" transform="translate(0 0.09375)"/>
      <use xlink:href="#DejaVuSans-2c" transform="translate(78.710938 0.09375)"/>
      <use xlink:href="#DejaVuSans-20" transform="translate(110.498047 0.09375)"/>
      <use xlink:href="#DejaVuSans-433" transform="translate(142.285156 0.09375)"/>
      <use xlink:href="#DejaVuSans-440" transform="translate(194.824219 0.09375)"/>
      <use xlink:href="#DejaVuSans-430" transform="translate(258.300781 0.09375)"/>
      <use xlink:href="#DejaVuSans-434" transform="translate(319.580078 0.09375)"/>
     </g>
    </g>
   </g>
   <g id="matplotlib.axis_4">
    <g id="ytick_9">
     <g id="line2d_49">
      <path d="M 184.32 661.064465 
L 1327.104 661.064465 
" clip-path="url(#pe33625fd61)" style="fill: none; stroke: #b0b0b0; stroke-width: 0.8; stroke-linecap: square"/>
     </g>
     <g id="line2d_50">
      <g>
       <use xlink:href="#m85e9ee1941" x="184.32" y="661.064465" style="stroke: #000000; stroke-width: 0.8"/>
      </g>
     </g>
     <g id="text_28">
      <!-- 0.0 -->
      <g transform="translate(161.416875 664.863684) scale(0.1 -0.1)">
       <use xlink:href="#DejaVuSans-30"/>
       <use xlink:href="#DejaVuSans-2e" x="63.623047"/>
       <use xlink:href="#DejaVuSans-30" x="95.410156"/>
      </g>
     </g>
    </g>
    <g id="ytick_10">
     <g id="line2d_51">
      <path d="M 184.32 618.961707 
L 1327.104 618.961707 
" clip-path="url(#pe33625fd61)" style="fill: none; stroke: #b0b0b0; stroke-width: 0.8; stroke-linecap: square"/>
     </g>
     <g id="line2d_52">
      <g>
       <use xlink:href="#m85e9ee1941" x="184.32" y="618.961707" style="stroke: #000000; stroke-width: 0.8"/>
      </g>
     </g>
     <g id="text_29">
      <!-- 0.1 -->
      <g transform="translate(161.416875 622.760926) scale(0.1 -0.1)">
       <use xlink:href="#DejaVuSans-30"/>
       <use xlink:href="#DejaVuSans-2e" x="63.623047"/>
       <use xlink:href="#DejaVuSans-31" x="95.410156"/>
      </g>
     </g>
    </g>
    <g id="ytick_11">
     <g id="line2d_53">
      <path d="M 184.32 576.858948 
L 1327.104 576.858948 
" clip-path="url(#pe33625fd61)" style="fill: none; stroke: #b0b0b0; stroke-width: 0.8; stroke-linecap: square"/>
     </g>
     <g id="line2d_54">
      <g>
       <use xlink:href="#m85e9ee1941" x="184.32" y="576.858948" style="stroke: #000000; stroke-width: 0.8"/>
      </g>
     </g>
     <g id="text_30">
      <!-- 0.2 -->
      <g transform="translate(161.416875 580.658167) scale(0.1 -0.1)">
       <use xlink:href="#DejaVuSans-30"/>
       <use xlink:href="#DejaVuSans-2e" x="63.623047"/>
       <use xlink:href="#DejaVuSans-32" x="95.410156"/>
      </g>
     </g>
    </g>
    <g id="ytick_12">
     <g id="line2d_55">
      <path d="M 184.32 534.756189 
L 1327.104 534.756189 
" clip-path="url(#pe33625fd61)" style="fill: none; stroke: #b0b0b0; stroke-width: 0.8; stroke-linecap: square"/>
     </g>
     <g id="line2d_56">
      <g>
       <use xlink:href="#m85e9ee1941" x="184.32" y="534.756189" style="stroke: #000000; stroke-width: 0.8"/>
      </g>
     </g>
     <g id="text_31">
      <!-- 0.3 -->
      <g transform="translate(161.416875 538.555408) scale(0.1 -0.1)">
       <defs>
        <path id="DejaVuSans-33" d="M 2597 2516 
Q 3050 2419 3304 2112 
Q 3559 1806 3559 1356 
Q 3559 666 3084 287 
Q 2609 -91 1734 -91 
Q 1441 -91 1130 -33 
Q 819 25 488 141 
L 488 750 
Q 750 597 1062 519 
Q 1375 441 1716 441 
Q 2309 441 2620 675 
Q 2931 909 2931 1356 
Q 2931 1769 2642 2001 
Q 2353 2234 1838 2234 
L 1294 2234 
L 1294 2753 
L 1863 2753 
Q 2328 2753 2575 2939 
Q 2822 3125 2822 3475 
Q 2822 3834 2567 4026 
Q 2313 4219 1838 4219 
Q 1578 4219 1281 4162 
Q 984 4106 628 3988 
L 628 4550 
Q 988 4650 1302 4700 
Q 1616 4750 1894 4750 
Q 2613 4750 3031 4423 
Q 3450 4097 3450 3541 
Q 3450 3153 3228 2886 
Q 3006 2619 2597 2516 
z
" transform="scale(0.015625)"/>
       </defs>
       <use xlink:href="#DejaVuSans-30"/>
       <use xlink:href="#DejaVuSans-2e" x="63.623047"/>
       <use xlink:href="#DejaVuSans-33" x="95.410156"/>
      </g>
     </g>
    </g>
    <g id="ytick_13">
     <g id="line2d_57">
      <path d="M 184.32 492.653431 
L 1327.104 492.653431 
" clip-path="url(#pe33625fd61)" style="fill: none; stroke: #b0b0b0; stroke-width: 0.8; stroke-linecap: square"/>
     </g>
     <g id="line2d_58">
      <g>
       <use xlink:href="#m85e9ee1941" x="184.32" y="492.653431" style="stroke: #000000; stroke-width: 0.8"/>
      </g>
     </g>
     <g id="text_32">
      <!-- 0.4 -->
      <g transform="translate(161.416875 496.45265) scale(0.1 -0.1)">
       <use xlink:href="#DejaVuSans-30"/>
       <use xlink:href="#DejaVuSans-2e" x="63.623047"/>
       <use xlink:href="#DejaVuSans-34" x="95.410156"/>
      </g>
     </g>
    </g>
    <g id="ytick_14">
     <g id="line2d_59">
      <path d="M 184.32 450.550672 
L 1327.104 450.550672 
" clip-path="url(#pe33625fd61)" style="fill: none; stroke: #b0b0b0; stroke-width: 0.8; stroke-linecap: square"/>
     </g>
     <g id="line2d_60">
      <g>
       <use xlink:href="#m85e9ee1941" x="184.32" y="450.550672" style="stroke: #000000; stroke-width: 0.8"/>
      </g>
     </g>
     <g id="text_33">
      <!-- 0.5 -->
      <g transform="translate(161.416875 454.349891) scale(0.1 -0.1)">
       <use xlink:href="#DejaVuSans-30"/>
       <use xlink:href="#DejaVuSans-2e" x="63.623047"/>
       <use xlink:href="#DejaVuSans-35" x="95.410156"/>
      </g>
     </g>
    </g>
    <g id="ytick_15">
     <g id="line2d_61">
      <path d="M 184.32 408.447913 
L 1327.104 408.447913 
" clip-path="url(#pe33625fd61)" style="fill: none; stroke: #b0b0b0; stroke-width: 0.8; stroke-linecap: square"/>
     </g>
     <g id="line2d_62">
      <g>
       <use xlink:href="#m85e9ee1941" x="184.32" y="408.447913" style="stroke: #000000; stroke-width: 0.8"/>
      </g>
     </g>
     <g id="text_34">
      <!-- 0.6 -->
      <g transform="translate(161.416875 412.247132) scale(0.1 -0.1)">
       <use xlink:href="#DejaVuSans-30"/>
       <use xlink:href="#DejaVuSans-2e" x="63.623047"/>
       <use xlink:href="#DejaVuSans-36" x="95.410156"/>
      </g>
     </g>
    </g>
   </g>
   <g id="line2d_63">
    <path d="M 236.264727 661.064465 
L 244.994934 659.227374 
L 253.72514 657.390213 
L 262.455346 655.552912 
L 271.185552 653.715402 
L 279.915759 651.877611 
L 288.645965 650.03947 
L 297.376171 648.200909 
L 306.106377 646.361858 
L 314.836584 644.522247 
L 323.56679 642.682004 
L 332.296996 640.84106 
L 341.027202 638.999345 
L 349.757409 637.156786 
L 358.487615 635.313315 
L 367.217821 633.468859 
L 375.948028 631.623349 
L 384.678234 629.776711 
L 393.40844 627.928876 
L 402.138646 626.079771 
L 410.868853 624.229325 
L 419.599059 622.377465 
L 428.329265 620.52412 
L 437.059471 618.669217 
L 445.789678 616.812683 
L 454.519884 614.954445 
L 463.25009 613.094431 
L 471.980296 611.232567 
L 480.710503 609.368778 
L 489.440709 607.502991 
L 498.170915 605.635132 
L 506.901121 603.765126 
L 515.631328 601.892897 
L 524.361534 600.018371 
L 533.09174 598.141471 
L 541.821947 596.262122 
L 550.552153 594.380247 
L 559.282359 592.495769 
L 568.012565 590.608611 
L 576.742772 588.718694 
L 585.472978 586.825942 
L 594.203184 584.930275 
L 602.93339 583.031615 
L 611.663597 581.129881 
L 620.393803 579.224993 
L 629.124009 577.316871 
L 637.854215 575.405435 
L 646.584422 573.490601 
L 655.314628 571.572289 
L 664.044834 569.650415 
L 672.77504 567.724897 
L 681.505247 565.795649 
L 690.235453 563.862588 
L 698.965659 561.925629 
L 707.695866 559.984685 
L 716.426072 558.03967 
L 725.156278 556.090498 
L 733.886484 554.13708 
L 742.616691 552.179328 
L 751.346897 550.217152 
L 760.077103 548.250464 
L 768.807309 546.279171 
L 777.537516 544.303182 
L 786.267722 542.322405 
L 794.997928 540.336748 
L 803.728134 538.346115 
L 812.458341 536.350413 
L 821.188547 534.349545 
L 829.918753 532.343414 
L 838.64896 530.331925 
L 847.379166 528.314977 
L 856.109372 526.292472 
L 864.839578 524.26431 
L 873.569785 522.230388 
L 882.299991 520.190606 
L 891.030197 518.144858 
L 899.760403 516.093041 
L 908.49061 514.03505 
L 917.220816 511.970777 
L 925.951022 509.900116 
L 934.681228 507.822956 
L 943.411435 505.739188 
L 952.141641 503.648701 
L 960.871847 501.551382 
L 969.602053 499.447117 
L 978.33226 497.335791 
L 987.062466 495.217289 
L 995.792672 493.091491 
L 1004.522879 490.958279 
L 1013.253085 488.817532 
L 1021.983291 486.669129 
L 1030.713497 484.512946 
L 1039.443704 482.348858 
L 1048.17391 480.176739 
L 1056.904116 477.996461 
L 1065.634322 475.807893 
L 1074.364529 473.610907 
L 1083.094735 471.405367 
L 1091.824941 469.19114 
L 1100.555147 466.968089 
L 1109.285354 464.736077 
L 1118.01556 462.494964 
L 1126.745766 460.244608 
L 1135.475972 457.984865 
L 1144.206179 455.715591 
L 1152.936385 453.436637 
L 1161.666591 451.147854 
L 1170.396798 448.849091 
L 1179.127004 446.540195 
L 1187.85721 444.221009 
L 1196.587416 441.891376 
L 1205.317623 439.551136 
L 1214.047829 437.200127 
L 1222.778035 434.838183 
L 1231.508241 432.465138 
L 1240.238448 430.080822 
L 1248.968654 427.685063 
L 1257.69886 425.277688 
L 1266.429066 422.858518 
L 1275.159273 420.427375 
" clip-path="url(#pe33625fd61)" style="fill: none; stroke: #1f77b4; stroke-width: 3; stroke-linecap: square"/>
   </g>
   <g id="line2d_64">
    <path d="M 236.264727 661.064465 
L 244.994934 659.227386 
L 253.72514 657.390307 
L 262.455346 655.553227 
L 271.185552 653.716148 
L 279.915759 651.879068 
L 288.645965 650.041989 
L 297.376171 648.20491 
L 306.106377 646.36783 
L 314.836584 644.530751 
L 323.56679 642.693671 
L 332.296996 640.856592 
L 341.027202 639.019513 
L 349.757409 637.182433 
L 358.487615 635.345354 
L 367.217821 633.508274 
L 375.948028 631.671195 
L 384.678234 629.834116 
L 393.40844 627.997036 
L 402.138646 626.159957 
L 410.868853 624.322877 
L 419.599059 622.485798 
L 428.329265 620.648718 
L 437.059471 618.811639 
L 445.789678 616.97456 
L 454.519884 615.13748 
L 463.25009 613.300401 
L 471.980296 611.463321 
L 480.710503 609.626242 
L 489.440709 607.789163 
L 498.170915 605.952083 
L 506.901121 604.115004 
L 515.631328 602.277924 
L 524.361534 600.440845 
L 533.09174 598.603766 
L 541.821947 596.766686 
L 550.552153 594.929607 
L 559.282359 593.092527 
L 568.012565 591.255448 
L 576.742772 589.418369 
L 585.472978 587.581289 
L 594.203184 585.74421 
L 602.93339 583.90713 
L 611.663597 582.070051 
L 620.393803 580.232972 
L 629.124009 578.395892 
L 637.854215 576.558813 
L 646.584422 574.721733 
L 655.314628 572.884654 
L 664.044834 571.047574 
L 672.77504 569.210495 
L 681.505247 567.373416 
L 690.235453 565.536336 
L 698.965659 563.699257 
L 707.695866 561.862177 
L 716.426072 560.025098 
L 725.156278 558.188019 
L 733.886484 556.350939 
L 742.616691 554.51386 
L 751.346897 552.67678 
L 760.077103 550.839701 
L 768.807309 549.002622 
L 777.537516 547.165542 
L 786.267722 545.328463 
L 794.997928 543.491383 
L 803.728134 541.654304 
L 812.458341 539.817225 
L 821.188547 537.980145 
L 829.918753 536.143066 
L 838.64896 534.305986 
L 847.379166 532.468907 
L 856.109372 530.631828 
L 864.839578 528.794748 
L 873.569785 526.957669 
L 882.299991 525.120589 
L 891.030197 523.28351 
L 899.760403 521.44643 
L 908.49061 519.609351 
L 917.220816 517.772272 
L 925.951022 515.935192 
L 934.681228 514.098113 
L 943.411435 512.261033 
L 952.141641 510.423954 
L 960.871847 508.586875 
L 969.602053 506.749795 
L 978.33226 504.912716 
L 987.062466 503.075636 
L 995.792672 501.238557 
L 1004.522879 499.401478 
L 1013.253085 497.564398 
L 1021.983291 495.727319 
L 1030.713497 493.890239 
L 1039.443704 492.05316 
L 1048.17391 490.216081 
L 1056.904116 488.379001 
L 1065.634322 486.541922 
L 1074.364529 484.704842 
L 1083.094735 482.867763 
L 1091.824941 481.030684 
L 1100.555147 479.193604 
L 1109.285354 477.356525 
L 1118.01556 475.519445 
L 1126.745766 473.682366 
L 1135.475972 471.845286 
L 1144.206179 470.008207 
L 1152.936385 468.171128 
L 1161.666591 466.334048 
L 1170.396798 464.496969 
L 1179.127004 462.659889 
L 1187.85721 460.82281 
L 1196.587416 458.985731 
L 1205.317623 457.148651 
L 1214.047829 455.311572 
L 1222.778035 453.474492 
L 1231.508241 451.637413 
L 1240.238448 449.800334 
L 1248.968654 447.963254 
L 1257.69886 446.126175 
L 1266.429066 444.289095 
L 1275.159273 442.452016 
" clip-path="url(#pe33625fd61)" style="fill: none; stroke: #ff7f0e; stroke-width: 3; stroke-linecap: square"/>
   </g>
   <g id="patch_9">
    <path d="M 184.32 673.09632 
L 184.32 408.39552 
" style="fill: none; stroke: #000000; stroke-width: 0.8; stroke-linejoin: miter; stroke-linecap: square"/>
   </g>
   <g id="patch_10">
    <path d="M 1327.104 673.09632 
L 1327.104 408.39552 
" style="fill: none; stroke: #000000; stroke-width: 0.8; stroke-linejoin: miter; stroke-linecap: square"/>
   </g>
   <g id="patch_11">
    <path d="M 184.32 673.09632 
L 1327.104 673.09632 
" style="fill: none; stroke: #000000; stroke-width: 0.8; stroke-linejoin: miter; stroke-linecap: square"/>
   </g>
   <g id="patch_12">
    <path d="M 184.32 408.39552 
L 1327.104 408.39552 
" style="fill: none; stroke: #000000; stroke-width: 0.8; stroke-linejoin: miter; stroke-linecap: square"/>
   </g>
   <g id="text_35">
    <!-- Линейная аппроксимация модифицированных параметров Родрига -->
    <g transform="translate(539.457 402.39552) scale(0.12 -0.12)">
     <defs>
      <path id="DejaVuSans-444" d="M 947 1747 
Q 947 1013 1173 702 
Q 1400 391 1784 391 
Q 2091 391 2447 916 
L 2447 2578 
Q 2091 3103 1784 3103 
Q 1400 3103 1173 2792 
Q 947 2481 947 1747 
z
M 2447 -1331 
L 2447 447 
Q 2269 153 2064 31 
Q 1859 -91 1600 -91 
Q 1078 -91 714 392 
Q 350 875 350 1734 
Q 350 2594 714 3089 
Q 1078 3584 1600 3584 
Q 1859 3584 2064 3465 
Q 2269 3347 2447 3053 
L 2447 4666 
L 3025 4666 
L 3025 3053 
Q 3203 3347 3408 3465 
Q 3613 3584 3872 3584 
Q 4394 3584 4758 3089 
Q 5122 2594 5122 1734 
Q 5122 875 4758 392 
Q 4394 -91 3872 -91 
Q 3613 -91 3408 31 
Q 3203 153 3025 447 
L 3025 -1331 
L 2447 -1331 
z
M 4525 1747 
Q 4525 2481 4298 2792 
Q 4072 3103 3688 3103 
Q 3381 3103 3025 2578 
L 3025 916 
Q 3381 391 3688 391 
Q 4072 391 4298 702 
Q 4525 1013 4525 1747 
z
" transform="scale(0.015625)"/>
      <path id="DejaVuSans-44b" d="M 3907 3500 
L 4482 3500 
L 4482 0 
L 3907 0 
L 3907 3500 
z
M 4195 3584 
L 4195 3584 
z
M 2781 1038 
Q 2781 1319 2576 1466 
Q 2372 1613 1978 1613 
L 1159 1613 
L 1159 459 
L 1978 459 
Q 2372 459 2576 607 
Q 2781 756 2781 1038 
z
M 581 3500 
L 1159 3500 
L 1159 2072 
L 2003 2072 
Q 2672 2072 3033 1817 
Q 3394 1563 3394 1038 
Q 3394 513 3033 256 
Q 2672 0 2003 0 
L 581 0 
L 581 3500 
z
" transform="scale(0.015625)"/>
     </defs>
     <use xlink:href="#DejaVuSans-41b"/>
     <use xlink:href="#DejaVuSans-438" x="75.195312"/>
     <use xlink:href="#DejaVuSans-43d" x="140.185547"/>
     <use xlink:href="#DejaVuSans-435" x="205.566406"/>
     <use xlink:href="#DejaVuSans-439" x="267.089844"/>
     <use xlink:href="#DejaVuSans-43d" x="332.080078"/>
     <use xlink:href="#DejaVuSans-430" x="397.460938"/>
     <use xlink:href="#DejaVuSans-44f" x="458.740234"/>
     <use xlink:href="#DejaVuSans-20" x="518.896484"/>
     <use xlink:href="#DejaVuSans-430" x="550.683594"/>
     <use xlink:href="#DejaVuSans-43f" x="611.962891"/>
     <use xlink:href="#DejaVuSans-43f" x="677.34375"/>
     <use xlink:href="#DejaVuSans-440" x="742.724609"/>
     <use xlink:href="#DejaVuSans-43e" x="806.201172"/>
     <use xlink:href="#DejaVuSans-43a" x="867.382812"/>
     <use xlink:href="#DejaVuSans-441" x="927.783203"/>
     <use xlink:href="#DejaVuSans-438" x="982.763672"/>
     <use xlink:href="#DejaVuSans-43c" x="1047.753906"/>
     <use xlink:href="#DejaVuSans-430" x="1123.193359"/>
     <use xlink:href="#DejaVuSans-446" x="1184.472656"/>
     <use xlink:href="#DejaVuSans-438" x="1252.539062"/>
     <use xlink:href="#DejaVuSans-44f" x="1317.529297"/>
     <use xlink:href="#DejaVuSans-20" x="1377.685547"/>
     <use xlink:href="#DejaVuSans-43c" x="1409.472656"/>
     <use xlink:href="#DejaVuSans-43e" x="1484.912109"/>
     <use xlink:href="#DejaVuSans-434" x="1546.09375"/>
     <use xlink:href="#DejaVuSans-438" x="1615.234375"/>
     <use xlink:href="#DejaVuSans-444" x="1680.224609"/>
     <use xlink:href="#DejaVuSans-438" x="1765.722656"/>
     <use xlink:href="#DejaVuSans-446" x="1830.712891"/>
     <use xlink:href="#DejaVuSans-438" x="1898.779297"/>
     <use xlink:href="#DejaVuSans-440" x="1963.769531"/>
     <use xlink:href="#DejaVuSans-43e" x="2027.246094"/>
     <use xlink:href="#DejaVuSans-432" x="2088.427734"/>
     <use xlink:href="#DejaVuSans-430" x="2147.363281"/>
     <use xlink:href="#DejaVuSans-43d" x="2208.642578"/>
     <use xlink:href="#DejaVuSans-43d" x="2274.023438"/>
     <use xlink:href="#DejaVuSans-44b" x="2339.404297"/>
     <use xlink:href="#DejaVuSans-445" x="2418.359375"/>
     <use xlink:href="#DejaVuSans-20" x="2477.539062"/>
     <use xlink:href="#DejaVuSans-43f" x="2509.326172"/>
     <use xlink:href="#DejaVuSans-430" x="2574.707031"/>
     <use xlink:href="#DejaVuSans-440" x="2635.986328"/>
     <use xlink:href="#DejaVuSans-430" x="2699.462891"/>
     <use xlink:href="#DejaVuSans-43c" x="2760.742188"/>
     <use xlink:href="#DejaVuSans-435" x="2836.181641"/>
     <use xlink:href="#DejaVuSans-442" x="2897.705078"/>
     <use xlink:href="#DejaVuSans-440" x="2955.957031"/>
     <use xlink:href="#DejaVuSans-43e" x="3019.433594"/>
     <use xlink:href="#DejaVuSans-432" x="3080.615234"/>
     <use xlink:href="#DejaVuSans-20" x="3139.550781"/>
     <use xlink:href="#DejaVuSans-420" x="3171.337891"/>
     <use xlink:href="#DejaVuSans-43e" x="3231.640625"/>
     <use xlink:href="#DejaVuSans-434" x="3292.822266"/>
     <use xlink:href="#DejaVuSans-440" x="3361.962891"/>
     <use xlink:href="#DejaVuSans-438" x="3425.439453"/>
     <use xlink:href="#DejaVuSans-433" x="3490.429688"/>
     <use xlink:href="#DejaVuSans-430" x="3542.96875"/>
    </g>
   </g>
   <g id="legend_2">
    <g id="patch_13">
     <path d="M 194.12 483.43552 
L 266.08 483.43552 
Q 268.88 483.43552 268.88 480.63552 
L 268.88 418.19552 
Q 268.88 415.39552 266.08 415.39552 
L 194.12 415.39552 
Q 191.32 415.39552 191.32 418.19552 
L 191.32 480.63552 
Q 191.32 483.43552 194.12 483.43552 
z
" style="fill: #ffffff; opacity: 0.8; stroke: #cccccc; stroke-linejoin: miter"/>
    </g>
    <g id="line2d_65">
     <path d="M 196.92 432.47552 
L 210.92 432.47552 
L 224.92 432.47552 
" style="fill: none; stroke: #1f77b4; stroke-width: 3; stroke-linecap: square"/>
    </g>
    <g id="text_36">
     <!-- $\text{tg}\dfrac{\Phi}{4}$ -->
     <g transform="translate(236.12 437.37552) scale(0.14 -0.14)">
      <use xlink:href="#DejaVuSans-74" transform="translate(0 0.296875)"/>
      <use xlink:href="#DejaVuSans-67" transform="translate(39.208984 0.296875)"/>
      <use xlink:href="#DejaVuSans-3a6" transform="translate(102.685547 44.09375)"/>
      <use xlink:href="#DejaVuSans-34" transform="translate(110.685547 -60.0625)"/>
      <path d="M 102.685547 19.09375 
L 102.685547 25.34375 
L 181.396484 25.34375 
L 181.396484 19.09375 
L 102.685547 19.09375 
z
"/>
     </g>
    </g>
    <g id="line2d_66">
     <path d="M 196.92 464.39552 
L 210.92 464.39552 
L 224.92 464.39552 
" style="fill: none; stroke: #ff7f0e; stroke-width: 3; stroke-linecap: square"/>
    </g>
    <g id="text_37">
     <!-- $\dfrac{\Phi}{4}$ -->
     <g transform="translate(236.12 469.29552) scale(0.14 -0.14)">
      <use xlink:href="#DejaVuSans-3a6" transform="translate(0 44.09375)"/>
      <use xlink:href="#DejaVuSans-34" transform="translate(8 -60.0625)"/>
      <path d="M 0 19.09375 
L 0 25.34375 
L 78.710938 25.34375 
L 78.710938 19.09375 
L 0 19.09375 
z
"/>
     </g>
    </g>
   </g>
  </g>
 </g>
 <defs>
  <clipPath id="p035a982e75">
   <rect x="184.32" y="90.75456" width="1142.784" height="264.7008"/>
  </clipPath>
  <clipPath id="pe33625fd61">
   <rect x="184.32" y="408.39552" width="1142.784" height="264.7008"/>
  </clipPath>
 </defs>
</svg>
