<?xml version="1.0" encoding="utf-8" standalone="no"?>
<!DOCTYPE svg PUBLIC "-//W3C//DTD SVG 1.1//EN"
  "http://www.w3.org/Graphics/SVG/1.1/DTD/svg11.dtd">
<svg xmlns:xlink="http://www.w3.org/1999/xlink" width="1474.56pt" height="756.288pt" viewBox="0 0 1474.56 756.288" xmlns="http://www.w3.org/2000/svg" version="1.1">
 <metadata>
  <rdf:RDF xmlns:dc="http://purl.org/dc/elements/1.1/" xmlns:cc="http://creativecommons.org/ns#" xmlns:rdf="http://www.w3.org/1999/02/22-rdf-syntax-ns#">
   <cc:Work>
    <dc:type rdf:resource="http://purl.org/dc/dcmitype/StillImage"/>
    <dc:date>2025-04-03T13:47:44.027171</dc:date>
    <dc:format>image/svg+xml</dc:format>
    <dc:creator>
     <cc:Agent>
      <dc:title>Matplotlib v3.9.4, https://matplotlib.org/</dc:title>
     </cc:Agent>
    </dc:creator>
   </cc:Work>
  </rdf:RDF>
 </metadata>
 <defs>
  <style type="text/css">*{stroke-linejoin: round; stroke-linecap: butt}</style>
 </defs>
 <g id="figure_1">
  <g id="patch_1">
   <path d="M 0 756.288 
L 1474.56 756.288 
L 1474.56 0 
L 0 0 
z
" style="fill: #ffffff"/>
  </g>
  <g id="axes_1">
   <g id="patch_2">
    <path d="M 184.32 673.09632 
L 1327.104 673.09632 
L 1327.104 90.75456 
L 184.32 90.75456 
z
" style="fill: #ffffff"/>
   </g>
   <g id="matplotlib.axis_1">
    <g id="xtick_1">
     <g id="line2d_1">
      <path d="M 236.264727 673.09632 
L 236.264727 90.75456 
" clip-path="url(#pd7bb56b698)" style="fill: none; stroke: #b0b0b0; stroke-width: 0.8; stroke-linecap: square"/>
     </g>
     <g id="line2d_2">
      <defs>
       <path id="m4c367234e2" d="M 0 0 
L 0 3.5 
" style="stroke: #000000; stroke-width: 0.8"/>
      </defs>
      <g>
       <use xlink:href="#m4c367234e2" x="236.264727" y="673.09632" style="stroke: #000000; stroke-width: 0.8"/>
      </g>
     </g>
     <g id="text_1">
      <!-- 0 -->
      <g transform="translate(233.083477 687.694758) scale(0.1 -0.1)">
       <defs>
        <path id="DejaVuSans-30" d="M 2034 4250 
Q 1547 4250 1301 3770 
Q 1056 3291 1056 2328 
Q 1056 1369 1301 889 
Q 1547 409 2034 409 
Q 2525 409 2770 889 
Q 3016 1369 3016 2328 
Q 3016 3291 2770 3770 
Q 2525 4250 2034 4250 
z
M 2034 4750 
Q 2819 4750 3233 4129 
Q 3647 3509 3647 2328 
Q 3647 1150 3233 529 
Q 2819 -91 2034 -91 
Q 1250 -91 836 529 
Q 422 1150 422 2328 
Q 422 3509 836 4129 
Q 1250 4750 2034 4750 
z
" transform="scale(0.015625)"/>
       </defs>
       <use xlink:href="#DejaVuSans-30"/>
      </g>
     </g>
    </g>
    <g id="xtick_2">
     <g id="line2d_3">
      <path d="M 444.043636 673.09632 
L 444.043636 90.75456 
" clip-path="url(#pd7bb56b698)" style="fill: none; stroke: #b0b0b0; stroke-width: 0.8; stroke-linecap: square"/>
     </g>
     <g id="line2d_4">
      <g>
       <use xlink:href="#m4c367234e2" x="444.043636" y="673.09632" style="stroke: #000000; stroke-width: 0.8"/>
      </g>
     </g>
     <g id="text_2">
      <!-- 2 -->
      <g transform="translate(440.862386 687.694758) scale(0.1 -0.1)">
       <defs>
        <path id="DejaVuSans-32" d="M 1228 531 
L 3431 531 
L 3431 0 
L 469 0 
L 469 531 
Q 828 903 1448 1529 
Q 2069 2156 2228 2338 
Q 2531 2678 2651 2914 
Q 2772 3150 2772 3378 
Q 2772 3750 2511 3984 
Q 2250 4219 1831 4219 
Q 1534 4219 1204 4116 
Q 875 4013 500 3803 
L 500 4441 
Q 881 4594 1212 4672 
Q 1544 4750 1819 4750 
Q 2544 4750 2975 4387 
Q 3406 4025 3406 3419 
Q 3406 3131 3298 2873 
Q 3191 2616 2906 2266 
Q 2828 2175 2409 1742 
Q 1991 1309 1228 531 
z
" transform="scale(0.015625)"/>
       </defs>
       <use xlink:href="#DejaVuSans-32"/>
      </g>
     </g>
    </g>
    <g id="xtick_3">
     <g id="line2d_5">
      <path d="M 651.822545 673.09632 
L 651.822545 90.75456 
" clip-path="url(#pd7bb56b698)" style="fill: none; stroke: #b0b0b0; stroke-width: 0.8; stroke-linecap: square"/>
     </g>
     <g id="line2d_6">
      <g>
       <use xlink:href="#m4c367234e2" x="651.822545" y="673.09632" style="stroke: #000000; stroke-width: 0.8"/>
      </g>
     </g>
     <g id="text_3">
      <!-- 4 -->
      <g transform="translate(648.641295 687.694758) scale(0.1 -0.1)">
       <defs>
        <path id="DejaVuSans-34" d="M 2419 4116 
L 825 1625 
L 2419 1625 
L 2419 4116 
z
M 2253 4666 
L 3047 4666 
L 3047 1625 
L 3713 1625 
L 3713 1100 
L 3047 1100 
L 3047 0 
L 2419 0 
L 2419 1100 
L 313 1100 
L 313 1709 
L 2253 4666 
z
" transform="scale(0.015625)"/>
       </defs>
       <use xlink:href="#DejaVuSans-34"/>
      </g>
     </g>
    </g>
    <g id="xtick_4">
     <g id="line2d_7">
      <path d="M 859.601455 673.09632 
L 859.601455 90.75456 
" clip-path="url(#pd7bb56b698)" style="fill: none; stroke: #b0b0b0; stroke-width: 0.8; stroke-linecap: square"/>
     </g>
     <g id="line2d_8">
      <g>
       <use xlink:href="#m4c367234e2" x="859.601455" y="673.09632" style="stroke: #000000; stroke-width: 0.8"/>
      </g>
     </g>
     <g id="text_4">
      <!-- 6 -->
      <g transform="translate(856.420205 687.694758) scale(0.1 -0.1)">
       <defs>
        <path id="DejaVuSans-36" d="M 2113 2584 
Q 1688 2584 1439 2293 
Q 1191 2003 1191 1497 
Q 1191 994 1439 701 
Q 1688 409 2113 409 
Q 2538 409 2786 701 
Q 3034 994 3034 1497 
Q 3034 2003 2786 2293 
Q 2538 2584 2113 2584 
z
M 3366 4563 
L 3366 3988 
Q 3128 4100 2886 4159 
Q 2644 4219 2406 4219 
Q 1781 4219 1451 3797 
Q 1122 3375 1075 2522 
Q 1259 2794 1537 2939 
Q 1816 3084 2150 3084 
Q 2853 3084 3261 2657 
Q 3669 2231 3669 1497 
Q 3669 778 3244 343 
Q 2819 -91 2113 -91 
Q 1303 -91 875 529 
Q 447 1150 447 2328 
Q 447 3434 972 4092 
Q 1497 4750 2381 4750 
Q 2619 4750 2861 4703 
Q 3103 4656 3366 4563 
z
" transform="scale(0.015625)"/>
       </defs>
       <use xlink:href="#DejaVuSans-36"/>
      </g>
     </g>
    </g>
    <g id="xtick_5">
     <g id="line2d_9">
      <path d="M 1067.380364 673.09632 
L 1067.380364 90.75456 
" clip-path="url(#pd7bb56b698)" style="fill: none; stroke: #b0b0b0; stroke-width: 0.8; stroke-linecap: square"/>
     </g>
     <g id="line2d_10">
      <g>
       <use xlink:href="#m4c367234e2" x="1067.380364" y="673.09632" style="stroke: #000000; stroke-width: 0.8"/>
      </g>
     </g>
     <g id="text_5">
      <!-- 8 -->
      <g transform="translate(1064.199114 687.694758) scale(0.1 -0.1)">
       <defs>
        <path id="DejaVuSans-38" d="M 2034 2216 
Q 1584 2216 1326 1975 
Q 1069 1734 1069 1313 
Q 1069 891 1326 650 
Q 1584 409 2034 409 
Q 2484 409 2743 651 
Q 3003 894 3003 1313 
Q 3003 1734 2745 1975 
Q 2488 2216 2034 2216 
z
M 1403 2484 
Q 997 2584 770 2862 
Q 544 3141 544 3541 
Q 544 4100 942 4425 
Q 1341 4750 2034 4750 
Q 2731 4750 3128 4425 
Q 3525 4100 3525 3541 
Q 3525 3141 3298 2862 
Q 3072 2584 2669 2484 
Q 3125 2378 3379 2068 
Q 3634 1759 3634 1313 
Q 3634 634 3220 271 
Q 2806 -91 2034 -91 
Q 1263 -91 848 271 
Q 434 634 434 1313 
Q 434 1759 690 2068 
Q 947 2378 1403 2484 
z
M 1172 3481 
Q 1172 3119 1398 2916 
Q 1625 2713 2034 2713 
Q 2441 2713 2670 2916 
Q 2900 3119 2900 3481 
Q 2900 3844 2670 4047 
Q 2441 4250 2034 4250 
Q 1625 4250 1398 4047 
Q 1172 3844 1172 3481 
z
" transform="scale(0.015625)"/>
       </defs>
       <use xlink:href="#DejaVuSans-38"/>
      </g>
     </g>
    </g>
    <g id="xtick_6">
     <g id="line2d_11">
      <path d="M 1275.159273 673.09632 
L 1275.159273 90.75456 
" clip-path="url(#pd7bb56b698)" style="fill: none; stroke: #b0b0b0; stroke-width: 0.8; stroke-linecap: square"/>
     </g>
     <g id="line2d_12">
      <g>
       <use xlink:href="#m4c367234e2" x="1275.159273" y="673.09632" style="stroke: #000000; stroke-width: 0.8"/>
      </g>
     </g>
     <g id="text_6">
      <!-- 10 -->
      <g transform="translate(1268.796773 687.694758) scale(0.1 -0.1)">
       <defs>
        <path id="DejaVuSans-31" d="M 794 531 
L 1825 531 
L 1825 4091 
L 703 3866 
L 703 4441 
L 1819 4666 
L 2450 4666 
L 2450 531 
L 3481 531 
L 3481 0 
L 794 0 
L 794 531 
z
" transform="scale(0.015625)"/>
       </defs>
       <use xlink:href="#DejaVuSans-31"/>
       <use xlink:href="#DejaVuSans-30" x="63.623047"/>
      </g>
     </g>
    </g>
    <g id="text_7">
     <!-- Время, с -->
     <g transform="translate(724.368406 704.412258) scale(0.14 -0.14)">
      <defs>
       <path id="DejaVuSans-412" d="M 1259 2228 
L 1259 519 
L 2272 519 
Q 2781 519 3026 730 
Q 3272 941 3272 1375 
Q 3272 1813 3026 2020 
Q 2781 2228 2272 2228 
L 1259 2228 
z
M 1259 4147 
L 1259 2741 
L 2194 2741 
Q 2656 2741 2882 2914 
Q 3109 3088 3109 3444 
Q 3109 3797 2882 3972 
Q 2656 4147 2194 4147 
L 1259 4147 
z
M 628 4666 
L 2241 4666 
Q 2963 4666 3353 4366 
Q 3744 4066 3744 3513 
Q 3744 3084 3544 2831 
Q 3344 2578 2956 2516 
Q 3422 2416 3680 2098 
Q 3938 1781 3938 1306 
Q 3938 681 3513 340 
Q 3088 0 2303 0 
L 628 0 
L 628 4666 
z
" transform="scale(0.015625)"/>
       <path id="DejaVuSans-440" d="M 1159 525 
L 1159 -1331 
L 581 -1331 
L 581 3500 
L 1159 3500 
L 1159 2969 
Q 1341 3281 1617 3432 
Q 1894 3584 2278 3584 
Q 2916 3584 3314 3078 
Q 3713 2572 3713 1747 
Q 3713 922 3314 415 
Q 2916 -91 2278 -91 
Q 1894 -91 1617 61 
Q 1341 213 1159 525 
z
M 3116 1747 
Q 3116 2381 2855 2742 
Q 2594 3103 2138 3103 
Q 1681 3103 1420 2742 
Q 1159 2381 1159 1747 
Q 1159 1113 1420 752 
Q 1681 391 2138 391 
Q 2594 391 2855 752 
Q 3116 1113 3116 1747 
z
" transform="scale(0.015625)"/>
       <path id="DejaVuSans-435" d="M 3597 1894 
L 3597 1613 
L 953 1613 
Q 991 1019 1311 708 
Q 1631 397 2203 397 
Q 2534 397 2845 478 
Q 3156 559 3463 722 
L 3463 178 
Q 3153 47 2828 -22 
Q 2503 -91 2169 -91 
Q 1331 -91 842 396 
Q 353 884 353 1716 
Q 353 2575 817 3079 
Q 1281 3584 2069 3584 
Q 2775 3584 3186 3129 
Q 3597 2675 3597 1894 
z
M 3022 2063 
Q 3016 2534 2758 2815 
Q 2500 3097 2075 3097 
Q 1594 3097 1305 2825 
Q 1016 2553 972 2059 
L 3022 2063 
z
" transform="scale(0.015625)"/>
       <path id="DejaVuSans-43c" d="M 581 3500 
L 1422 3500 
L 2416 1156 
L 3413 3500 
L 4247 3500 
L 4247 0 
L 3669 0 
L 3669 2950 
L 2703 672 
L 2128 672 
L 1159 2950 
L 1159 0 
L 581 0 
L 581 3500 
z
" transform="scale(0.015625)"/>
       <path id="DejaVuSans-44f" d="M 1181 2491 
Q 1181 2231 1381 2084 
Q 1581 1938 1953 1938 
L 2728 1938 
L 2728 3041 
L 1953 3041 
Q 1581 3041 1381 2897 
Q 1181 2753 1181 2491 
z
M 363 0 
L 1431 1534 
Q 1069 1616 828 1830 
Q 588 2044 588 2491 
Q 588 2997 923 3248 
Q 1259 3500 1938 3500 
L 3306 3500 
L 3306 0 
L 2728 0 
L 2728 1478 
L 2013 1478 
L 981 0 
L 363 0 
z
" transform="scale(0.015625)"/>
       <path id="DejaVuSans-2c" d="M 750 794 
L 1409 794 
L 1409 256 
L 897 -744 
L 494 -744 
L 750 256 
L 750 794 
z
" transform="scale(0.015625)"/>
       <path id="DejaVuSans-20" transform="scale(0.015625)"/>
       <path id="DejaVuSans-441" d="M 3122 3366 
L 3122 2828 
Q 2878 2963 2633 3030 
Q 2388 3097 2138 3097 
Q 1578 3097 1268 2742 
Q 959 2388 959 1747 
Q 959 1106 1268 751 
Q 1578 397 2138 397 
Q 2388 397 2633 464 
Q 2878 531 3122 666 
L 3122 134 
Q 2881 22 2623 -34 
Q 2366 -91 2075 -91 
Q 1284 -91 818 406 
Q 353 903 353 1747 
Q 353 2603 823 3093 
Q 1294 3584 2113 3584 
Q 2378 3584 2631 3529 
Q 2884 3475 3122 3366 
z
" transform="scale(0.015625)"/>
      </defs>
      <use xlink:href="#DejaVuSans-412"/>
      <use xlink:href="#DejaVuSans-440" x="68.603516"/>
      <use xlink:href="#DejaVuSans-435" x="132.080078"/>
      <use xlink:href="#DejaVuSans-43c" x="193.603516"/>
      <use xlink:href="#DejaVuSans-44f" x="269.042969"/>
      <use xlink:href="#DejaVuSans-2c" x="329.199219"/>
      <use xlink:href="#DejaVuSans-20" x="360.986328"/>
      <use xlink:href="#DejaVuSans-441" x="392.773438"/>
     </g>
    </g>
   </g>
   <g id="matplotlib.axis_2">
    <g id="ytick_1">
     <g id="line2d_13">
      <path d="M 184.32 672.557933 
L 1327.104 672.557933 
" clip-path="url(#pd7bb56b698)" style="fill: none; stroke: #b0b0b0; stroke-width: 0.8; stroke-linecap: square"/>
     </g>
     <g id="line2d_14">
      <defs>
       <path id="mf197383500" d="M 0 0 
L -3.5 0 
" style="stroke: #000000; stroke-width: 0.8"/>
      </defs>
      <g>
       <use xlink:href="#mf197383500" x="184.32" y="672.557933" style="stroke: #000000; stroke-width: 0.8"/>
      </g>
     </g>
     <g id="text_8">
      <!-- −0.6 -->
      <g transform="translate(153.037187 676.357152) scale(0.1 -0.1)">
       <defs>
        <path id="DejaVuSans-2212" d="M 678 2272 
L 4684 2272 
L 4684 1741 
L 678 1741 
L 678 2272 
z
" transform="scale(0.015625)"/>
        <path id="DejaVuSans-2e" d="M 684 794 
L 1344 794 
L 1344 0 
L 684 0 
L 684 794 
z
" transform="scale(0.015625)"/>
       </defs>
       <use xlink:href="#DejaVuSans-2212"/>
       <use xlink:href="#DejaVuSans-30" x="83.789062"/>
       <use xlink:href="#DejaVuSans-2e" x="147.412109"/>
       <use xlink:href="#DejaVuSans-36" x="179.199219"/>
      </g>
     </g>
    </g>
    <g id="ytick_2">
     <g id="line2d_15">
      <path d="M 184.32 603.148986 
L 1327.104 603.148986 
" clip-path="url(#pd7bb56b698)" style="fill: none; stroke: #b0b0b0; stroke-width: 0.8; stroke-linecap: square"/>
     </g>
     <g id="line2d_16">
      <g>
       <use xlink:href="#mf197383500" x="184.32" y="603.148986" style="stroke: #000000; stroke-width: 0.8"/>
      </g>
     </g>
     <g id="text_9">
      <!-- −0.4 -->
      <g transform="translate(153.037187 606.948204) scale(0.1 -0.1)">
       <use xlink:href="#DejaVuSans-2212"/>
       <use xlink:href="#DejaVuSans-30" x="83.789062"/>
       <use xlink:href="#DejaVuSans-2e" x="147.412109"/>
       <use xlink:href="#DejaVuSans-34" x="179.199219"/>
      </g>
     </g>
    </g>
    <g id="ytick_3">
     <g id="line2d_17">
      <path d="M 184.32 533.740038 
L 1327.104 533.740038 
" clip-path="url(#pd7bb56b698)" style="fill: none; stroke: #b0b0b0; stroke-width: 0.8; stroke-linecap: square"/>
     </g>
     <g id="line2d_18">
      <g>
       <use xlink:href="#mf197383500" x="184.32" y="533.740038" style="stroke: #000000; stroke-width: 0.8"/>
      </g>
     </g>
     <g id="text_10">
      <!-- −0.2 -->
      <g transform="translate(153.037187 537.539257) scale(0.1 -0.1)">
       <use xlink:href="#DejaVuSans-2212"/>
       <use xlink:href="#DejaVuSans-30" x="83.789062"/>
       <use xlink:href="#DejaVuSans-2e" x="147.412109"/>
       <use xlink:href="#DejaVuSans-32" x="179.199219"/>
      </g>
     </g>
    </g>
    <g id="ytick_4">
     <g id="line2d_19">
      <path d="M 184.32 464.331091 
L 1327.104 464.331091 
" clip-path="url(#pd7bb56b698)" style="fill: none; stroke: #b0b0b0; stroke-width: 0.8; stroke-linecap: square"/>
     </g>
     <g id="line2d_20">
      <g>
       <use xlink:href="#mf197383500" x="184.32" y="464.331091" style="stroke: #000000; stroke-width: 0.8"/>
      </g>
     </g>
     <g id="text_11">
      <!-- 0.0 -->
      <g transform="translate(161.416875 468.13031) scale(0.1 -0.1)">
       <use xlink:href="#DejaVuSans-30"/>
       <use xlink:href="#DejaVuSans-2e" x="63.623047"/>
       <use xlink:href="#DejaVuSans-30" x="95.410156"/>
      </g>
     </g>
    </g>
    <g id="ytick_5">
     <g id="line2d_21">
      <path d="M 184.32 394.922144 
L 1327.104 394.922144 
" clip-path="url(#pd7bb56b698)" style="fill: none; stroke: #b0b0b0; stroke-width: 0.8; stroke-linecap: square"/>
     </g>
     <g id="line2d_22">
      <g>
       <use xlink:href="#mf197383500" x="184.32" y="394.922144" style="stroke: #000000; stroke-width: 0.8"/>
      </g>
     </g>
     <g id="text_12">
      <!-- 0.2 -->
      <g transform="translate(161.416875 398.721362) scale(0.1 -0.1)">
       <use xlink:href="#DejaVuSans-30"/>
       <use xlink:href="#DejaVuSans-2e" x="63.623047"/>
       <use xlink:href="#DejaVuSans-32" x="95.410156"/>
      </g>
     </g>
    </g>
    <g id="ytick_6">
     <g id="line2d_23">
      <path d="M 184.32 325.513196 
L 1327.104 325.513196 
" clip-path="url(#pd7bb56b698)" style="fill: none; stroke: #b0b0b0; stroke-width: 0.8; stroke-linecap: square"/>
     </g>
     <g id="line2d_24">
      <g>
       <use xlink:href="#mf197383500" x="184.32" y="325.513196" style="stroke: #000000; stroke-width: 0.8"/>
      </g>
     </g>
     <g id="text_13">
      <!-- 0.4 -->
      <g transform="translate(161.416875 329.312415) scale(0.1 -0.1)">
       <use xlink:href="#DejaVuSans-30"/>
       <use xlink:href="#DejaVuSans-2e" x="63.623047"/>
       <use xlink:href="#DejaVuSans-34" x="95.410156"/>
      </g>
     </g>
    </g>
    <g id="ytick_7">
     <g id="line2d_25">
      <path d="M 184.32 256.104249 
L 1327.104 256.104249 
" clip-path="url(#pd7bb56b698)" style="fill: none; stroke: #b0b0b0; stroke-width: 0.8; stroke-linecap: square"/>
     </g>
     <g id="line2d_26">
      <g>
       <use xlink:href="#mf197383500" x="184.32" y="256.104249" style="stroke: #000000; stroke-width: 0.8"/>
      </g>
     </g>
     <g id="text_14">
      <!-- 0.6 -->
      <g transform="translate(161.416875 259.903468) scale(0.1 -0.1)">
       <use xlink:href="#DejaVuSans-30"/>
       <use xlink:href="#DejaVuSans-2e" x="63.623047"/>
       <use xlink:href="#DejaVuSans-36" x="95.410156"/>
      </g>
     </g>
    </g>
    <g id="ytick_8">
     <g id="line2d_27">
      <path d="M 184.32 186.695301 
L 1327.104 186.695301 
" clip-path="url(#pd7bb56b698)" style="fill: none; stroke: #b0b0b0; stroke-width: 0.8; stroke-linecap: square"/>
     </g>
     <g id="line2d_28">
      <g>
       <use xlink:href="#mf197383500" x="184.32" y="186.695301" style="stroke: #000000; stroke-width: 0.8"/>
      </g>
     </g>
     <g id="text_15">
      <!-- 0.8 -->
      <g transform="translate(161.416875 190.49452) scale(0.1 -0.1)">
       <use xlink:href="#DejaVuSans-30"/>
       <use xlink:href="#DejaVuSans-2e" x="63.623047"/>
       <use xlink:href="#DejaVuSans-38" x="95.410156"/>
      </g>
     </g>
    </g>
    <g id="ytick_9">
     <g id="line2d_29">
      <path d="M 184.32 117.286354 
L 1327.104 117.286354 
" clip-path="url(#pd7bb56b698)" style="fill: none; stroke: #b0b0b0; stroke-width: 0.8; stroke-linecap: square"/>
     </g>
     <g id="line2d_30">
      <g>
       <use xlink:href="#mf197383500" x="184.32" y="117.286354" style="stroke: #000000; stroke-width: 0.8"/>
      </g>
     </g>
     <g id="text_16">
      <!-- 1.0 -->
      <g transform="translate(161.416875 121.085573) scale(0.1 -0.1)">
       <use xlink:href="#DejaVuSans-31"/>
       <use xlink:href="#DejaVuSans-2e" x="63.623047"/>
       <use xlink:href="#DejaVuSans-30" x="95.410156"/>
      </g>
     </g>
    </g>
    <g id="text_17">
     <!-- Компоненты МНК -->
     <g transform="translate(146.125625 446.881065) rotate(-90) scale(0.14 -0.14)">
      <defs>
       <path id="DejaVuSans-41a" d="M 628 4666 
L 1259 4666 
L 1259 2359 
L 3516 4666 
L 4325 4666 
L 2522 2822 
L 4419 0 
L 3731 0 
L 2113 2403 
L 1259 1531 
L 1259 0 
L 628 0 
L 628 4666 
z
" transform="scale(0.015625)"/>
       <path id="DejaVuSans-43e" d="M 1959 3097 
Q 1497 3097 1228 2736 
Q 959 2375 959 1747 
Q 959 1119 1226 758 
Q 1494 397 1959 397 
Q 2419 397 2687 759 
Q 2956 1122 2956 1747 
Q 2956 2369 2687 2733 
Q 2419 3097 1959 3097 
z
M 1959 3584 
Q 2709 3584 3137 3096 
Q 3566 2609 3566 1747 
Q 3566 888 3137 398 
Q 2709 -91 1959 -91 
Q 1206 -91 779 398 
Q 353 888 353 1747 
Q 353 2609 779 3096 
Q 1206 3584 1959 3584 
z
" transform="scale(0.015625)"/>
       <path id="DejaVuSans-43f" d="M 3603 3500 
L 3603 0 
L 3025 0 
L 3025 3041 
L 1159 3041 
L 1159 0 
L 581 0 
L 581 3500 
L 3603 3500 
z
" transform="scale(0.015625)"/>
       <path id="DejaVuSans-43d" d="M 581 3500 
L 1159 3500 
L 1159 2072 
L 3025 2072 
L 3025 3500 
L 3603 3500 
L 3603 0 
L 3025 0 
L 3025 1613 
L 1159 1613 
L 1159 0 
L 581 0 
L 581 3500 
z
" transform="scale(0.015625)"/>
       <path id="DejaVuSans-442" d="M 188 3500 
L 3541 3500 
L 3541 3041 
L 2147 3041 
L 2147 0 
L 1581 0 
L 1581 3041 
L 188 3041 
L 188 3500 
z
" transform="scale(0.015625)"/>
       <path id="DejaVuSans-44b" d="M 3907 3500 
L 4482 3500 
L 4482 0 
L 3907 0 
L 3907 3500 
z
M 4195 3584 
L 4195 3584 
z
M 2781 1038 
Q 2781 1319 2576 1466 
Q 2372 1613 1978 1613 
L 1159 1613 
L 1159 459 
L 1978 459 
Q 2372 459 2576 607 
Q 2781 756 2781 1038 
z
M 581 3500 
L 1159 3500 
L 1159 2072 
L 2003 2072 
Q 2672 2072 3033 1817 
Q 3394 1563 3394 1038 
Q 3394 513 3033 256 
Q 2672 0 2003 0 
L 581 0 
L 581 3500 
z
" transform="scale(0.015625)"/>
       <path id="DejaVuSans-41c" d="M 628 4666 
L 1569 4666 
L 2759 1491 
L 3956 4666 
L 4897 4666 
L 4897 0 
L 4281 0 
L 4281 4097 
L 3078 897 
L 2444 897 
L 1241 4097 
L 1241 0 
L 628 0 
L 628 4666 
z
" transform="scale(0.015625)"/>
       <path id="DejaVuSans-41d" d="M 628 4666 
L 1259 4666 
L 1259 2753 
L 3553 2753 
L 3553 4666 
L 4184 4666 
L 4184 0 
L 3553 0 
L 3553 2222 
L 1259 2222 
L 1259 0 
L 628 0 
L 628 4666 
z
" transform="scale(0.015625)"/>
      </defs>
      <use xlink:href="#DejaVuSans-41a"/>
      <use xlink:href="#DejaVuSans-43e" x="70.996094"/>
      <use xlink:href="#DejaVuSans-43c" x="132.177734"/>
      <use xlink:href="#DejaVuSans-43f" x="207.617188"/>
      <use xlink:href="#DejaVuSans-43e" x="272.998047"/>
      <use xlink:href="#DejaVuSans-43d" x="334.179688"/>
      <use xlink:href="#DejaVuSans-435" x="399.560547"/>
      <use xlink:href="#DejaVuSans-43d" x="461.083984"/>
      <use xlink:href="#DejaVuSans-442" x="526.464844"/>
      <use xlink:href="#DejaVuSans-44b" x="584.716797"/>
      <use xlink:href="#DejaVuSans-20" x="663.671875"/>
      <use xlink:href="#DejaVuSans-41c" x="695.458984"/>
      <use xlink:href="#DejaVuSans-41d" x="781.738281"/>
      <use xlink:href="#DejaVuSans-41a" x="856.933594"/>
     </g>
    </g>
   </g>
   <g id="line2d_31">
    <path d="M 236.264727 117.286354 
L 246.653673 117.294793 
L 257.042618 117.371296 
L 267.431564 117.650976 
L 277.820509 118.308754 
L 288.209455 119.622566 
L 298.5984 121.796052 
L 308.987345 124.918811 
L 319.376291 128.966394 
L 329.765236 133.800308 
L 340.154182 139.168014 
L 350.543127 144.709377 
L 360.932073 150.019114 
L 371.321018 154.579306 
L 381.709964 157.963452 
L 392.098909 159.884829 
L 402.487855 160.196489 
L 412.8768 158.891263 
L 423.265745 156.101756 
L 433.654691 152.100352 
L 444.043636 147.28217 
L 454.432582 142.097817 
L 464.821527 137.022399 
L 475.210473 132.433063 
L 485.599418 128.599872 
L 495.988364 125.68581 
L 506.377309 123.746776 
L 516.766255 122.731589 
L 527.1552 122.481985 
L 537.544145 122.732618 
L 547.933091 123.11973 
L 558.322036 123.426973 
L 568.710982 123.687654 
L 579.099927 123.974153 
L 589.488873 124.385498 
L 599.877818 125.04737 
L 610.266764 126.112103 
L 620.655709 127.758682 
L 631.044655 130.192742 
L 641.4336 133.64746 
L 651.822545 138.249239 
L 662.211491 143.57682 
L 672.600436 149.127455 
L 682.989382 154.454731 
L 693.378327 159.168572 
L 703.767273 162.935242 
L 714.156218 165.477344 
L 724.545164 166.573815 
L 734.934109 166.059933 
L 745.323055 163.827314 
L 755.712 159.893622 
L 766.100945 154.731794 
L 776.489891 148.911126 
L 786.878836 142.913759 
L 797.267782 137.134414 
L 807.656727 131.880397 
L 818.045673 127.371598 
L 828.434618 123.740488 
L 838.823564 121.032125 
L 849.212509 119.204146 
L 859.601455 118.126776 
L 869.9904 117.558973 
L 880.379345 117.292119 
L 890.768291 117.256687 
L 901.157236 117.438042 
L 911.546182 117.875647 
L 921.935127 118.663062 
L 932.324073 119.94795 
L 942.713018 121.932067 
L 953.101964 124.870759 
L 963.490909 128.919778 
L 973.879855 133.89725 
L 984.2688 139.537282 
L 994.657745 145.533051 
L 1005.046691 151.536806 
L 1015.435636 157.159863 
L 1025.824582 161.972611 
L 1036.213527 165.504508 
L 1046.602473 167.292024 
L 1056.991418 167.250337 
L 1067.380364 165.532828 
L 1077.769309 162.351363 
L 1088.158255 157.974951 
L 1098.5472 152.729749 
L 1108.936145 146.999059 
L 1119.325091 141.223329 
L 1129.714036 135.900153 
L 1140.102982 131.565628 
L 1150.491927 128.38386 
L 1160.880873 126.157762 
L 1171.269818 124.70084 
L 1181.658764 123.850534 
L 1192.047709 123.468217 
L 1202.436655 123.439203 
L 1212.8256 123.672737 
L 1223.214545 124.102 
L 1233.603491 124.684111 
L 1243.992436 125.401533 
L 1254.381382 126.443455 
L 1264.770327 128.106295 
L 1275.159273 130.589227 
" clip-path="url(#pd7bb56b698)" style="fill: none; stroke: #1f77b4; stroke-width: 1.5; stroke-linecap: square"/>
   </g>
   <g id="line2d_32">
    <path d="M 236.264727 464.331091 
L 246.653673 462.60252 
L 257.042618 457.489661 
L 267.431564 449.198887 
L 277.820509 438.034167 
L 288.209455 424.556122 
L 298.5984 409.391892 
L 308.987345 393.18441 
L 319.376291 376.592407 
L 329.765236 360.290405 
L 340.154182 344.968723 
L 350.543127 331.325493 
L 360.932073 319.852642 
L 371.321018 310.846099 
L 381.709964 304.528293 
L 392.098909 301.034864 
L 402.487855 300.414664 
L 412.8768 302.629757 
L 423.265745 307.555416 
L 433.654691 314.980127 
L 444.043636 324.642632 
L 454.432582 336.238884 
L 464.821527 349.204901 
L 475.210473 362.968995 
L 485.599418 376.974574 
L 495.988364 390.680139 
L 506.377309 403.559293 
L 516.766255 415.100732 
L 527.1552 424.808248 
L 537.544145 432.200732 
L 547.933091 436.840835 
L 558.322036 438.594166 
L 568.710982 437.422641 
L 579.099927 433.363065 
L 589.488873 426.550571 
L 599.877818 417.218616 
L 610.266764 405.698984 
L 620.655709 392.421782 
L 631.044655 377.915444 
L 641.4336 362.805437 
L 651.822545 347.712252 
L 662.211491 333.238178 
L 672.600436 319.946867 
L 682.989382 308.321218 
L 693.378327 298.76338 
L 703.767273 291.594749 
L 714.156218 287.055972 
L 724.545164 285.306942 
L 734.934109 286.426802 
L 745.323055 290.413944 
L 755.712 297.281426 
L 766.100945 306.894194 
L 776.489891 318.854799 
L 786.878836 332.718517 
L 797.267782 347.994697 
L 807.656727 364.146757 
L 818.045673 380.592191 
L 828.434618 396.702564 
L 838.823564 411.803511 
L 849.212509 425.174743 
L 859.601455 436.050041 
L 869.9904 443.842806 
L 880.379345 448.403237 
L 890.768291 449.56094 
L 901.157236 447.277543 
L 911.546182 441.649557 
L 921.935127 432.908376 
L 932.324073 421.420281 
L 942.713018 407.686436 
L 953.101964 392.341326 
L 963.490909 376.054507 
L 973.879855 359.586087 
L 984.2688 343.671366 
L 994.657745 328.943077 
L 1005.046691 315.931384 
L 1015.435636 305.063881 
L 1025.824582 296.665597 
L 1036.213527 290.95899 
L 1046.602473 288.051705 
L 1056.991418 287.936544 
L 1067.380364 290.554052 
L 1077.769309 295.772402 
L 1088.158255 303.386228 
L 1098.5472 313.116622 
L 1108.936145 324.611136 
L 1119.325091 337.443779 
L 1129.714036 351.11502 
L 1140.102982 365.076721 
L 1150.491927 378.749921 
L 1160.880873 391.462459 
L 1171.269818 402.632304 
L 1181.658764 411.780653 
L 1192.047709 418.531931 
L 1202.436655 422.613788 
L 1212.8256 423.857102 
L 1223.214545 422.195977 
L 1233.603491 417.667746 
L 1243.992436 410.413056 
L 1254.381382 400.692508 
L 1264.770327 388.887764 
L 1275.159273 375.4702 
" clip-path="url(#pd7bb56b698)" style="fill: none; stroke: #ff7f0e; stroke-width: 1.5; stroke-linecap: square"/>
   </g>
   <g id="line2d_33">
    <path d="M 236.264727 464.331091 
L 246.653673 462.597532 
L 257.042618 460.863706 
L 267.431564 459.10711 
L 277.820509 457.295933 
L 288.209455 455.354578 
L 298.5984 453.223554 
L 308.987345 450.874314 
L 319.376291 448.309255 
L 329.765236 445.561718 
L 340.154182 442.695986 
L 350.543127 439.804194 
L 360.932073 437.00243 
L 371.321018 434.525106 
L 381.709964 432.610991 
L 392.098909 431.475385 
L 402.487855 431.310126 
L 412.8768 432.283579 
L 423.265745 434.540648 
L 433.654691 438.202765 
L 444.043636 443.374701 
L 454.432582 450.007137 
L 464.821527 457.812393 
L 475.210473 466.477151 
L 485.599418 475.675348 
L 495.988364 485.068167 
L 506.377309 494.304045 
L 516.766255 503.018669 
L 527.1552 510.834974 
L 537.544145 517.36315 
L 547.933091 522.227306 
L 558.322036 525.313656 
L 568.710982 526.584286 
L 579.099927 526.047898 
L 589.488873 523.780755 
L 599.877818 519.926683 
L 610.266764 514.697068 
L 620.655709 508.370859 
L 631.044655 501.294566 
L 641.4336 493.881295 
L 651.822545 486.531069 
L 662.211491 479.608543 
L 672.600436 473.428118 
L 682.989382 468.223481 
L 693.378327 464.147606 
L 703.767273 461.272753 
L 714.156218 459.590467 
L 724.545164 459.011583 
L 734.934109 459.366218 
L 745.323055 460.403779 
L 755.712 461.860858 
L 766.100945 463.529609 
L 776.489891 465.182243 
L 786.878836 466.634172 
L 797.267782 467.744579 
L 807.656727 468.416425 
L 818.045673 468.596443 
L 828.434618 468.275144 
L 838.823564 467.486812 
L 849.212509 466.309505 
L 859.601455 464.865059 
L 869.9904 463.279551 
L 880.379345 461.601595 
L 890.768291 459.872758 
L 901.157236 458.116637 
L 911.546182 456.338463 
L 921.935127 454.525104 
L 932.324073 452.645065 
L 942.713018 450.648483 
L 953.101964 448.467593 
L 963.490909 446.065777 
L 973.879855 443.456962 
L 984.2688 440.679941 
L 994.657745 437.808494 
L 1005.046691 434.951381 
L 1015.435636 432.252346 
L 1025.824582 429.890116 
L 1036.213527 428.078399 
L 1046.602473 427.031882 
L 1056.991418 426.954748 
L 1067.380364 428.088549 
L 1077.769309 430.594578 
L 1088.158255 434.549862 
L 1098.5472 439.947163 
L 1108.936145 446.694976 
L 1119.325091 454.61753 
L 1129.714036 463.454787 
L 1140.102982 472.884782 
L 1150.491927 482.525094 
L 1160.880873 491.873688 
L 1171.269818 500.490239 
L 1181.658764 508.008668 
L 1192.047709 514.137139 
L 1202.436655 518.658063 
L 1212.8256 521.428092 
L 1223.214545 522.378126 
L 1233.603491 521.513307 
L 1243.992436 518.91306 
L 1254.381382 514.739908 
L 1264.770327 509.241043 
L 1275.159273 502.725466 
" clip-path="url(#pd7bb56b698)" style="fill: none; stroke: #2ca02c; stroke-width: 1.5; stroke-linecap: square"/>
   </g>
   <g id="line2d_34">
    <path d="M 236.264727 464.331091 
L 246.653673 466.062245 
L 257.042618 471.193027 
L 267.431564 479.531203 
L 277.820509 490.783932 
L 288.209455 504.403583 
L 298.5984 519.77081 
L 308.987345 536.243467 
L 319.376291 553.156601 
L 329.765236 569.822455 
L 340.154182 585.530469 
L 350.543127 599.55625 
L 360.932073 611.377438 
L 371.321018 620.631458 
L 381.709964 627.025381 
L 392.098909 630.357725 
L 402.487855 630.518459 
L 412.8768 627.488997 
L 423.265745 621.342207 
L 433.654691 612.242402 
L 444.043636 600.407443 
L 454.432582 586.152072 
L 464.821527 570.127366 
L 475.210473 553.003049 
L 485.599418 535.441016 
L 495.988364 518.095341 
L 506.377309 501.612271 
L 516.766255 486.630231 
L 527.1552 473.77982 
L 537.544145 463.683813 
L 547.933091 456.918371 
L 558.322036 453.663345 
L 568.710982 453.982488 
L 579.099927 457.850809 
L 589.488873 465.12273 
L 599.877818 475.532081 
L 610.266764 488.692109 
L 620.655709 504.095468 
L 631.044655 521.114227 
L 641.4336 539.001414 
L 651.822545 557.014334 
L 662.211491 574.435178 
L 672.600436 590.596944 
L 682.989382 604.93379 
L 693.378327 616.981038 
L 703.767273 626.375169 
L 714.156218 632.853825 
L 724.545164 636.255809 
L 734.934109 636.521086 
L 745.323055 633.690782 
L 755.712 627.797449 
L 766.100945 618.996616 
L 776.489891 607.705753 
L 786.878836 594.387977 
L 797.267782 579.550622 
L 807.656727 563.74524 
L 818.045673 547.567601 
L 828.434618 531.657692 
L 838.823564 516.699721 
L 849.212509 503.422111 
L 859.601455 492.597504 
L 869.9904 484.820989 
L 880.379345 480.261317 
L 890.768291 479.106956 
L 901.157236 481.412158 
L 911.546182 487.094119 
L 921.935127 495.932979 
L 932.324073 507.571827 
L 942.713018 521.516696 
L 953.101964 537.138094 
L 963.490909 553.766077 
L 973.879855 570.632412 
L 984.2688 586.985399 
L 994.657745 602.166659 
L 1005.046691 615.611131 
L 1015.435636 626.847075 
L 1025.824582 635.496067 
L 1036.213527 641.273005 
L 1046.602473 644.008211 
L 1056.991418 643.640171 
L 1067.380364 640.142114 
L 1077.769309 633.587008 
L 1088.158255 624.150118 
L 1098.5472 612.109003 
L 1108.936145 597.843517 
L 1119.325091 581.835806 
L 1129.714036 564.670313 
L 1140.102982 547.001732 
L 1150.491927 529.540561 
L 1160.880873 513.133797 
L 1171.269818 498.51844 
L 1181.658764 486.304173 
L 1192.047709 476.973363 
L 1202.436655 470.881058 
L 1212.8256 468.254989 
L 1223.214545 469.19557 
L 1233.603491 473.675897 
L 1243.992436 481.541672 
L 1254.381382 492.494795 
L 1264.770327 506.089381 
L 1275.159273 521.767399 
" clip-path="url(#pd7bb56b698)" style="fill: none; stroke: #d62728; stroke-width: 1.5; stroke-linecap: square"/>
   </g>
   <g id="line2d_35">
    <path d="M 236.264727 117.286354 
L 246.653673 117.29085 
L 257.042618 117.360317 
L 267.431564 117.64333 
L 277.820509 118.333707 
L 288.209455 119.743744 
L 298.5984 122.11479 
L 308.987345 125.574157 
L 319.376291 130.135119 
L 329.765236 135.69691 
L 340.154182 142.04473 
L 350.543127 148.855353 
L 360.932073 155.747762 
L 371.321018 162.226106 
L 381.709964 167.872132 
L 392.098909 172.388917 
L 402.487855 175.600875 
L 412.8768 177.453752 
L 423.265745 178.014628 
L 433.654691 177.471917 
L 444.043636 176.121576 
L 454.432582 174.305534 
L 464.821527 172.382255 
L 475.210473 170.634668 
L 485.599418 169.263187 
L 495.988364 168.385707 
L 506.377309 168.037609 
L 516.766255 168.171753 
L 527.1552 168.658485 
L 537.544145 169.285633 
L 547.933091 169.76551 
L 558.322036 169.939915 
L 568.710982 169.862936 
L 579.099927 169.617343 
L 589.488873 169.303522 
L 599.877818 169.03948 
L 610.266764 168.960839 
L 620.655709 169.220839 
L 631.044655 169.990338 
L 641.4336 171.458773 
L 651.822545 173.732389 
L 662.211491 176.447347 
L 672.600436 179.170264 
L 682.989382 181.523419 
L 693.378327 183.184751 
L 703.767273 183.887864 
L 714.156218 183.422021 
L 724.545164 181.632147 
L 734.934109 178.418828 
L 745.323055 173.738313 
L 755.712 167.659818 
L 766.100945 160.659862 
L 776.489891 153.298244 
L 786.878836 146.043084 
L 797.267782 139.270532 
L 807.656727 133.264766 
L 818.045673 128.217996 
L 828.434618 124.230462 
L 838.823564 121.310433 
L 849.212509 119.374206 
L 859.601455 118.246111 
L 869.9904 117.647821 
L 880.379345 117.360449 
L 890.768291 117.304808 
L 901.157236 117.464358 
L 911.546182 117.884582 
L 921.935127 118.672976 
L 932.324073 119.999053 
L 942.713018 122.094344 
L 953.101964 125.251693 
L 963.490909 129.660903 
L 973.879855 135.184201 
L 984.2688 141.60102 
L 994.657745 148.64193 
L 1005.046691 155.988636 
L 1015.435636 163.273976 
L 1025.824582 170.081928 
L 1036.213527 175.947599 
L 1046.602473 180.408626 
L 1056.991418 183.350082 
L 1067.380364 184.854775 
L 1077.769309 185.056867 
L 1088.158255 184.141422 
L 1098.5472 182.344403 
L 1108.936145 179.952671 
L 1119.325091 177.303988 
L 1129.714036 174.787016 
L 1140.102982 172.823474 
L 1150.491927 171.532107 
L 1160.880873 170.754104 
L 1171.269818 170.3434 
L 1181.658764 170.176338 
L 1192.047709 170.15168 
L 1202.436655 170.1906 
L 1212.8256 170.236685 
L 1223.214545 170.255937 
L 1233.603491 170.236774 
L 1243.992436 170.191076 
L 1254.381382 170.288645 
L 1264.770327 170.775932 
L 1275.159273 171.817887 
" clip-path="url(#pd7bb56b698)" style="fill: none; stroke: #9467bd; stroke-width: 1.5; stroke-linecap: square"/>
   </g>
   <g id="line2d_36">
    <path d="M 236.264727 464.331091 
L 246.653673 463.816709 
L 257.042618 462.301313 
L 267.431564 459.831663 
L 277.820509 456.458826 
L 288.209455 452.249085 
L 298.5984 447.269415 
L 308.987345 441.583749 
L 319.376291 435.252976 
L 329.765236 428.334945 
L 340.154182 420.884458 
L 350.543127 412.954601 
L 360.932073 404.590434 
L 371.321018 395.784659 
L 381.709964 386.548558 
L 392.098909 376.926639 
L 402.487855 366.996629 
L 412.8768 356.869478 
L 423.265745 346.689361 
L 433.654691 336.633671 
L 444.043636 326.913524 
L 454.432582 317.781365 
L 464.821527 309.475393 
L 475.210473 302.17234 
L 485.599418 295.985983 
L 495.988364 290.967147 
L 506.377309 287.103699 
L 516.766255 284.320556 
L 527.1552 282.479675 
L 537.544145 281.380065 
L 547.933091 280.76409 
L 558.322036 280.463754 
L 568.710982 280.45279 
L 579.099927 280.742323 
L 589.488873 281.376102 
L 599.877818 282.430499 
L 610.266764 284.014512 
L 620.655709 286.269761 
L 631.044655 289.370491 
L 641.4336 293.522987 
L 651.822545 298.845642 
L 662.211491 305.231372 
L 672.600436 312.546215 
L 682.989382 320.654484 
L 693.378327 329.418769 
L 703.767273 338.699932 
L 714.156218 348.357114 
L 724.545164 358.247728 
L 734.934109 368.227465 
L 745.323055 378.150289 
L 755.712 387.920497 
L 766.100945 397.492861 
L 776.489891 406.768118 
L 786.878836 415.647978 
L 797.267782 424.035631 
L 807.656727 431.835743 
L 818.045673 438.954459 
L 828.434618 445.299399 
L 838.823564 450.779664 
L 849.212509 455.30583 
L 859.601455 458.78995 
L 869.9904 461.186951 
L 880.379345 462.538925 
L 890.768291 462.872144 
L 901.157236 462.218226 
L 911.546182 460.614637 
L 921.935127 458.104693 
L 932.324073 454.737558 
L 942.713018 450.568244 
L 953.101964 445.657712 
L 963.490909 440.074433 
L 973.879855 433.871264 
L 984.2688 427.090341 
L 994.657745 419.769204 
L 1005.046691 411.940796 
L 1015.435636 403.633465 
L 1025.824582 394.870964 
L 1036.213527 385.672448 
L 1046.602473 376.045209 
L 1056.991418 366.055952 
L 1067.380364 355.861773 
L 1077.769309 345.63374 
L 1088.158255 335.554858 
L 1098.5472 325.820074 
L 1108.936145 316.636271 
L 1119.325091 308.222274 
L 1129.714036 300.808845 
L 1140.102982 294.640643 
L 1150.491927 289.777763 
L 1160.880873 286.040916 
L 1171.269818 283.25864 
L 1181.658764 281.279288 
L 1192.047709 279.971035 
L 1202.436655 279.221871 
L 1212.8256 278.939607 
L 1223.214545 279.051872 
L 1233.603491 279.506114 
L 1243.992436 280.270573 
L 1254.381382 281.46089 
L 1264.770327 283.282779 
L 1275.159273 285.899329 
" clip-path="url(#pd7bb56b698)" style="fill: none; stroke: #8c564b; stroke-width: 1.5; stroke-linecap: square"/>
   </g>
   <g id="line2d_37">
    <path d="M 236.264727 464.331091 
L 246.653673 466.062147 
L 257.042618 467.757655 
L 267.431564 469.357189 
L 277.820509 470.785928 
L 288.209455 471.915098 
L 298.5984 472.62145 
L 308.987345 472.80233 
L 319.376291 472.375674 
L 329.765236 471.280013 
L 340.154182 469.474472 
L 350.543127 466.938943 
L 360.932073 463.702686 
L 371.321018 459.86586 
L 381.709964 455.54165 
L 392.098909 450.849223 
L 402.487855 445.913726 
L 412.8768 440.866289 
L 423.265745 435.844019 
L 433.654691 430.990006 
L 444.043636 426.450153 
L 454.432582 422.309363 
L 464.821527 418.584961 
L 475.210473 415.277245 
L 485.599418 412.371386 
L 495.988364 409.837426 
L 506.377309 407.630277 
L 516.766255 405.689725 
L 527.1552 403.940425 
L 537.544145 402.291903 
L 547.933091 400.642961 
L 558.322036 398.951343 
L 568.710982 397.231847 
L 579.099927 395.517141 
L 589.488873 393.857908 
L 599.877818 392.322849 
L 610.266764 390.998681 
L 620.655709 389.990136 
L 631.044655 389.419965 
L 641.4336 389.428556 
L 651.822545 390.124444 
L 662.211491 391.543164 
L 672.600436 393.694359 
L 682.989382 396.561104 
L 693.378327 400.099899 
L 703.767273 404.240675 
L 714.156218 408.886794 
L 724.545164 413.915044 
L 734.934109 419.175643 
L 745.323055 424.492239 
L 755.712 429.693393 
L 766.100945 434.679636 
L 776.489891 439.369308 
L 786.878836 443.702047 
L 797.267782 447.638963 
L 807.656727 451.16264 
L 818.045673 454.277132 
L 828.434618 457.007965 
L 838.823564 459.402138 
L 849.212509 461.528119 
L 859.601455 463.475852 
L 869.9904 465.333995 
L 880.379345 467.133623 
L 890.768291 468.885498 
L 901.157236 470.577414 
L 911.546182 472.173998 
L 921.935127 473.616706 
L 932.324073 474.823829 
L 942.713018 475.690492 
L 953.101964 476.089066 
L 963.490909 475.909175 
L 973.879855 475.06926 
L 984.2688 473.510147 
L 994.657745 471.207551 
L 1005.046691 468.172077 
L 1015.435636 464.44922 
L 1025.824582 460.119366 
L 1036.213527 455.297789 
L 1046.602473 450.119587 
L 1056.991418 444.724389 
L 1067.380364 439.275484 
L 1077.769309 433.915241 
L 1088.158255 428.763509 
L 1098.5472 423.917608 
L 1108.936145 419.452339 
L 1119.325091 415.419976 
L 1129.714036 411.850271 
L 1140.102982 408.755503 
L 1150.491927 406.097936 
L 1160.880873 403.771267 
L 1171.269818 401.6822 
L 1181.658764 399.755145 
L 1192.047709 397.932224 
L 1202.436655 396.173262 
L 1212.8256 394.455799 
L 1223.214545 392.775077 
L 1233.603491 391.144052 
L 1243.992436 389.593659 
L 1254.381382 388.208196 
L 1264.770327 387.106901 
L 1275.159273 386.404697 
" clip-path="url(#pd7bb56b698)" style="fill: none; stroke: #e377c2; stroke-width: 1.5; stroke-linecap: square"/>
   </g>
   <g id="line2d_38">
    <path d="M 236.264727 464.331091 
L 246.653673 464.854072 
L 257.042618 466.42896 
L 267.431564 469.054616 
L 277.820509 472.717394 
L 288.209455 477.371635 
L 298.5984 482.950801 
L 308.987345 489.371371 
L 319.376291 496.532841 
L 329.765236 504.317723 
L 340.154182 512.591546 
L 350.543127 521.203831 
L 360.932073 530.02106 
L 371.321018 538.940944 
L 381.709964 547.872517 
L 392.098909 556.736499 
L 402.487855 565.465295 
L 412.8768 574.002995 
L 423.265745 582.305373 
L 433.654691 590.339891 
L 444.043636 598.081034 
L 454.432582 605.471748 
L 464.821527 612.442498 
L 475.210473 618.927624 
L 485.599418 624.864934 
L 495.988364 630.195698 
L 506.377309 634.86465 
L 516.766255 638.819991 
L 527.1552 642.013385 
L 537.544145 644.399959 
L 547.933091 645.941985 
L 558.322036 646.62624 
L 568.710982 646.42694 
L 579.099927 645.327083 
L 589.488873 643.323546 
L 599.877818 640.427083 
L 610.266764 636.662326 
L 620.655709 632.067787 
L 631.044655 626.695853 
L 641.4336 620.612873 
L 651.822545 613.908858 
L 662.211491 606.691691 
L 672.600436 599.061736 
L 682.989382 591.110699 
L 693.378327 582.92162 
L 703.767273 574.56888 
L 714.156218 566.118195 
L 724.545164 557.62662 
L 734.934109 549.142547 
L 745.323055 540.705706 
L 755.712 532.339646 
L 766.100945 524.096499 
L 776.489891 516.062797 
L 786.878836 508.325151 
L 797.267782 500.970075 
L 807.656727 494.083988 
L 818.045673 487.753211 
L 828.434618 482.063968 
L 838.823564 477.102387 
L 849.212509 472.954499 
L 859.601455 469.70624 
L 869.9904 467.418996 
L 880.379345 466.119932 
L 890.768291 465.847759 
L 901.157236 466.62449 
L 911.546182 468.455058 
L 921.935127 471.32732 
L 932.324073 475.212052 
L 942.713018 480.062955 
L 953.101964 485.816778 
L 963.490909 492.389595 
L 973.879855 499.649586 
L 984.2688 507.458656 
L 994.657745 515.685971 
L 1005.046691 524.207952 
L 1015.435636 532.908281 
L 1025.824582 541.677897 
L 1036.213527 550.414997 
L 1046.602473 559.034961 
L 1056.991418 567.501233 
L 1067.380364 575.780212 
L 1077.769309 583.834332 
L 1088.158255 591.622501 
L 1098.5472 599.1001 
L 1108.936145 606.21898 
L 1119.325091 612.927467 
L 1129.714036 619.170356 
L 1140.102982 624.886407 
L 1150.491927 630.002007 
L 1160.880873 634.453027 
L 1171.269818 638.183843 
L 1181.658764 641.146625 
L 1192.047709 643.301332 
L 1202.436655 644.615715 
L 1212.8256 645.065316 
L 1223.214545 644.633467 
L 1233.603491 643.311293 
L 1243.992436 641.097722 
L 1254.381382 638.002352 
L 1264.770327 634.05178 
L 1275.159273 629.290712 
" clip-path="url(#pd7bb56b698)" style="fill: none; stroke: #7f7f7f; stroke-width: 1.5; stroke-linecap: square"/>
   </g>
   <g id="line2d_39">
    <path d="M 236.264727 117.286354 
L 246.653673 117.291058 
L 257.042618 117.309617 
L 267.431564 117.354506 
L 277.820509 117.443532 
L 288.209455 117.607771 
L 298.5984 117.880494 
L 308.987345 118.294279 
L 319.376291 118.881004 
L 329.765236 119.671853 
L 340.154182 120.697315 
L 350.543127 121.986597 
L 360.932073 123.558134 
L 371.321018 125.427273 
L 381.709964 127.602478 
L 392.098909 130.082579 
L 402.487855 132.856774 
L 412.8768 135.904622 
L 423.265745 139.196051 
L 433.654691 142.691351 
L 444.043636 146.343297 
L 454.432582 150.090474 
L 464.821527 153.847826 
L 475.210473 157.533505 
L 485.599418 161.07075 
L 495.988364 164.387884 
L 506.377309 167.41831 
L 516.766255 170.10052 
L 527.1552 172.378086 
L 537.544145 174.199664 
L 547.933091 175.522125 
L 558.322036 176.327913 
L 568.710982 176.594251 
L 579.099927 176.306465 
L 589.488873 175.461931 
L 599.877818 174.070073 
L 610.266764 172.152366 
L 620.655709 169.742333 
L 631.044655 166.885548 
L 641.4336 163.639529 
L 651.822545 160.074497 
L 662.211491 156.288795 
L 672.600436 152.381217 
L 682.989382 148.441992 
L 693.378327 144.552777 
L 703.767273 140.78666 
L 714.156218 137.208162 
L 724.545164 133.873234 
L 734.934109 130.829258 
L 745.323055 128.115046 
L 755.712 125.756179 
L 766.100945 123.745738 
L 776.489891 122.064643 
L 786.878836 120.691004 
L 797.267782 119.60012 
L 807.656727 118.764486 
L 818.045673 118.15379 
L 828.434618 117.734914 
L 838.823564 117.471931 
L 849.212509 117.32611 
L 859.601455 117.255913 
L 869.9904 117.226389 
L 880.379345 117.22464 
L 890.768291 117.240995 
L 901.157236 117.272861 
L 911.546182 117.324821 
L 921.935127 117.408641 
L 932.324073 117.543265 
L 942.713018 117.754816 
L 953.101964 118.076476 
L 963.490909 118.539544 
L 973.879855 119.177538 
L 984.2688 120.023808 
L 994.657745 121.106579 
L 1005.046691 122.448947 
L 1015.435636 124.068885 
L 1025.824582 125.979237 
L 1036.213527 128.187721 
L 1046.602473 130.696817 
L 1056.991418 133.497147 
L 1067.380364 136.565688 
L 1077.769309 139.869913 
L 1088.158255 143.367886 
L 1098.5472 147.00826 
L 1108.936145 150.730275 
L 1119.325091 154.463762 
L 1129.714036 158.129138 
L 1140.102982 161.640096 
L 1150.491927 164.919261 
L 1160.880873 167.894492 
L 1171.269818 170.502275 
L 1181.658764 172.688366 
L 1192.047709 174.407796 
L 1202.436655 175.624862 
L 1212.8256 176.313136 
L 1223.214545 176.455462 
L 1233.603491 176.043952 
L 1243.992436 175.079964 
L 1254.381382 173.571197 
L 1264.770327 171.537426 
L 1275.159273 169.014909 
" clip-path="url(#pd7bb56b698)" style="fill: none; stroke: #bcbd22; stroke-width: 1.5; stroke-linecap: square"/>
   </g>
   <g id="patch_3">
    <path d="M 184.32 673.09632 
L 184.32 90.75456 
" style="fill: none; stroke: #000000; stroke-width: 0.8; stroke-linejoin: miter; stroke-linecap: square"/>
   </g>
   <g id="patch_4">
    <path d="M 1327.104 673.09632 
L 1327.104 90.75456 
" style="fill: none; stroke: #000000; stroke-width: 0.8; stroke-linejoin: miter; stroke-linecap: square"/>
   </g>
   <g id="patch_5">
    <path d="M 184.32 673.09632 
L 1327.104 673.09632 
" style="fill: none; stroke: #000000; stroke-width: 0.8; stroke-linejoin: miter; stroke-linecap: square"/>
   </g>
   <g id="patch_6">
    <path d="M 184.32 90.75456 
L 1327.104 90.75456 
" style="fill: none; stroke: #000000; stroke-width: 0.8; stroke-linejoin: miter; stroke-linecap: square"/>
   </g>
   <g id="legend_1">
    <g id="patch_7">
     <path d="M 191.32 668.09632 
L 243.027812 668.09632 
Q 245.027812 668.09632 245.027812 666.09632 
L 245.027812 534.993195 
Q 245.027812 532.993195 243.027812 532.993195 
L 191.32 532.993195 
Q 189.32 532.993195 189.32 534.993195 
L 189.32 666.09632 
Q 189.32 668.09632 191.32 668.09632 
z
" style="fill: #ffffff; opacity: 0.8; stroke: #cccccc; stroke-linejoin: miter"/>
    </g>
    <g id="line2d_40">
     <path d="M 193.32 541.091633 
L 203.32 541.091633 
L 213.32 541.091633 
" style="fill: none; stroke: #1f77b4; stroke-width: 1.5; stroke-linecap: square"/>
    </g>
    <g id="text_18">
     <!-- C11 -->
     <g transform="translate(221.32 544.591633) scale(0.1 -0.1)">
      <defs>
       <path id="DejaVuSans-43" d="M 4122 4306 
L 4122 3641 
Q 3803 3938 3442 4084 
Q 3081 4231 2675 4231 
Q 1875 4231 1450 3742 
Q 1025 3253 1025 2328 
Q 1025 1406 1450 917 
Q 1875 428 2675 428 
Q 3081 428 3442 575 
Q 3803 722 4122 1019 
L 4122 359 
Q 3791 134 3420 21 
Q 3050 -91 2638 -91 
Q 1578 -91 968 557 
Q 359 1206 359 2328 
Q 359 3453 968 4101 
Q 1578 4750 2638 4750 
Q 3056 4750 3426 4639 
Q 3797 4528 4122 4306 
z
" transform="scale(0.015625)"/>
      </defs>
      <use xlink:href="#DejaVuSans-43"/>
      <use xlink:href="#DejaVuSans-31" x="69.824219"/>
      <use xlink:href="#DejaVuSans-31" x="133.447266"/>
     </g>
    </g>
    <g id="line2d_41">
     <path d="M 193.32 555.769758 
L 203.32 555.769758 
L 213.32 555.769758 
" style="fill: none; stroke: #ff7f0e; stroke-width: 1.5; stroke-linecap: square"/>
    </g>
    <g id="text_19">
     <!-- C12 -->
     <g transform="translate(221.32 559.269758) scale(0.1 -0.1)">
      <use xlink:href="#DejaVuSans-43"/>
      <use xlink:href="#DejaVuSans-31" x="69.824219"/>
      <use xlink:href="#DejaVuSans-32" x="133.447266"/>
     </g>
    </g>
    <g id="line2d_42">
     <path d="M 193.32 570.447883 
L 203.32 570.447883 
L 213.32 570.447883 
" style="fill: none; stroke: #2ca02c; stroke-width: 1.5; stroke-linecap: square"/>
    </g>
    <g id="text_20">
     <!-- C13 -->
     <g transform="translate(221.32 573.947883) scale(0.1 -0.1)">
      <defs>
       <path id="DejaVuSans-33" d="M 2597 2516 
Q 3050 2419 3304 2112 
Q 3559 1806 3559 1356 
Q 3559 666 3084 287 
Q 2609 -91 1734 -91 
Q 1441 -91 1130 -33 
Q 819 25 488 141 
L 488 750 
Q 750 597 1062 519 
Q 1375 441 1716 441 
Q 2309 441 2620 675 
Q 2931 909 2931 1356 
Q 2931 1769 2642 2001 
Q 2353 2234 1838 2234 
L 1294 2234 
L 1294 2753 
L 1863 2753 
Q 2328 2753 2575 2939 
Q 2822 3125 2822 3475 
Q 2822 3834 2567 4026 
Q 2313 4219 1838 4219 
Q 1578 4219 1281 4162 
Q 984 4106 628 3988 
L 628 4550 
Q 988 4650 1302 4700 
Q 1616 4750 1894 4750 
Q 2613 4750 3031 4423 
Q 3450 4097 3450 3541 
Q 3450 3153 3228 2886 
Q 3006 2619 2597 2516 
z
" transform="scale(0.015625)"/>
      </defs>
      <use xlink:href="#DejaVuSans-43"/>
      <use xlink:href="#DejaVuSans-31" x="69.824219"/>
      <use xlink:href="#DejaVuSans-33" x="133.447266"/>
     </g>
    </g>
    <g id="line2d_43">
     <path d="M 193.32 585.126008 
L 203.32 585.126008 
L 213.32 585.126008 
" style="fill: none; stroke: #d62728; stroke-width: 1.5; stroke-linecap: square"/>
    </g>
    <g id="text_21">
     <!-- C21 -->
     <g transform="translate(221.32 588.626008) scale(0.1 -0.1)">
      <use xlink:href="#DejaVuSans-43"/>
      <use xlink:href="#DejaVuSans-32" x="69.824219"/>
      <use xlink:href="#DejaVuSans-31" x="133.447266"/>
     </g>
    </g>
    <g id="line2d_44">
     <path d="M 193.32 599.804133 
L 203.32 599.804133 
L 213.32 599.804133 
" style="fill: none; stroke: #9467bd; stroke-width: 1.5; stroke-linecap: square"/>
    </g>
    <g id="text_22">
     <!-- C22 -->
     <g transform="translate(221.32 603.304133) scale(0.1 -0.1)">
      <use xlink:href="#DejaVuSans-43"/>
      <use xlink:href="#DejaVuSans-32" x="69.824219"/>
      <use xlink:href="#DejaVuSans-32" x="133.447266"/>
     </g>
    </g>
    <g id="line2d_45">
     <path d="M 193.32 614.482258 
L 203.32 614.482258 
L 213.32 614.482258 
" style="fill: none; stroke: #8c564b; stroke-width: 1.5; stroke-linecap: square"/>
    </g>
    <g id="text_23">
     <!-- C23 -->
     <g transform="translate(221.32 617.982258) scale(0.1 -0.1)">
      <use xlink:href="#DejaVuSans-43"/>
      <use xlink:href="#DejaVuSans-32" x="69.824219"/>
      <use xlink:href="#DejaVuSans-33" x="133.447266"/>
     </g>
    </g>
    <g id="line2d_46">
     <path d="M 193.32 629.160383 
L 203.32 629.160383 
L 213.32 629.160383 
" style="fill: none; stroke: #e377c2; stroke-width: 1.5; stroke-linecap: square"/>
    </g>
    <g id="text_24">
     <!-- C31 -->
     <g transform="translate(221.32 632.660383) scale(0.1 -0.1)">
      <use xlink:href="#DejaVuSans-43"/>
      <use xlink:href="#DejaVuSans-33" x="69.824219"/>
      <use xlink:href="#DejaVuSans-31" x="133.447266"/>
     </g>
    </g>
    <g id="line2d_47">
     <path d="M 193.32 643.838508 
L 203.32 643.838508 
L 213.32 643.838508 
" style="fill: none; stroke: #7f7f7f; stroke-width: 1.5; stroke-linecap: square"/>
    </g>
    <g id="text_25">
     <!-- C32 -->
     <g transform="translate(221.32 647.338508) scale(0.1 -0.1)">
      <use xlink:href="#DejaVuSans-43"/>
      <use xlink:href="#DejaVuSans-33" x="69.824219"/>
      <use xlink:href="#DejaVuSans-32" x="133.447266"/>
     </g>
    </g>
    <g id="line2d_48">
     <path d="M 193.32 658.516633 
L 203.32 658.516633 
L 213.32 658.516633 
" style="fill: none; stroke: #bcbd22; stroke-width: 1.5; stroke-linecap: square"/>
    </g>
    <g id="text_26">
     <!-- C33 -->
     <g transform="translate(221.32 662.016633) scale(0.1 -0.1)">
      <use xlink:href="#DejaVuSans-43"/>
      <use xlink:href="#DejaVuSans-33" x="69.824219"/>
      <use xlink:href="#DejaVuSans-33" x="133.447266"/>
     </g>
    </g>
   </g>
  </g>
 </g>
 <defs>
  <clipPath id="pd7bb56b698">
   <rect x="184.32" y="90.75456" width="1142.784" height="582.34176"/>
  </clipPath>
 </defs>
</svg>
